<svg width="310" height="311" viewBox="0 0 310 311" fill="none" xmlns="http://www.w3.org/2000/svg">
<path d="M309.812 156C309.812 241.076 240.845 310.043 155.769 310.043C70.6929 310.043 0 241.076 0 156C0 156 17.6528 155.854 32.7944 156.172C31.4742 171.217 37.7818 209.633 63.0995 236.658C86.1242 263.687 121.081 279.775 156 279C187.896 279.566 222.153 265.558 246.65 239.28C268.379 215.766 278.969 183.035 278.855 159.027C278.991 144.231 277.276 133.013 274.044 121.234C269.792 107.696 264.322 94.6968 250.378 77.1363C224.145 48.4907 195.946 33.8977 156.198 32.913L156 0.5C241.076 0.5 309.812 70.9242 309.812 156Z" fill="#007DFC"/>
<path d="M267.676 156.397C267.676 217.58 217.977 267.179 156.671 267.179C103.479 267.179 59.0253 229.841 48.1895 179.994L78.5127 173.334C79.8087 179.517 84.2815 193.77 93.4211 205.118C104.388 219.589 120.538 228.203 127.908 230.727C142.61 236.473 160.715 237.644 176.783 233.436C195.155 228.626 210.031 217.357 218.582 206.329C225.725 197.474 233.061 183.862 235.293 168.48C237.96 151.413 234.568 135.745 230.839 127.492C225.742 112.564 214.638 98.9856 200.859 89.9885C187.042 80.5159 169.857 76.3232 155.88 76.5337L155.935 45.2325C217.241 45.2325 267.676 95.2134 267.676 156.397Z" fill="#6264E8"/>
<path d="M219.46 156.263C219.46 191.062 191.264 219.272 156.483 219.272C135.406 219.272 116.748 208.913 105.317 193.006C105.317 193.006 120.683 182.052 130.455 174.433C135.389 179.221 144.341 188.035 158.549 186.865C165.247 186.417 171.094 184.034 175.619 180.517C180.425 176.886 183.389 172.208 184.224 170.337C185.353 168.534 187.291 163.753 187.735 158.323C188.17 153.01 186.913 146.985 184.196 141.882C181.572 136.956 177.581 132.388 172.193 129.454C166.91 126.301 160.212 124.976 155.917 124.55C155.969 120.721 156.483 93.2552 156.483 93.2552C191.264 93.2552 219.46 121.465 219.46 156.263Z" fill="#4EB08D"/>
</svg>
