<svg width="716" height="215" viewBox="0 0 716 215" fill="none" xmlns="http://www.w3.org/2000/svg">
<path d="M6.26365 168V167.489L8.1841 165.386C8.40948 165.14 8.59509 164.926 8.74092 164.744C8.88676 164.561 8.99471 164.388 9.06479 164.227C9.13676 164.064 9.17274 163.894 9.17274 163.716C9.17274 163.511 9.1235 163.334 9.02501 163.185C8.92842 163.035 8.79585 162.92 8.62729 162.838C8.45873 162.757 8.26933 162.716 8.0591 162.716C7.83562 162.716 7.64054 162.762 7.47388 162.855C7.3091 162.946 7.18126 163.074 7.09035 163.239C7.00134 163.403 6.95683 163.597 6.95683 163.818H6.28638C6.28638 163.477 6.36498 163.178 6.52217 162.92C6.67937 162.663 6.89338 162.462 7.16422 162.318C7.43695 162.174 7.74282 162.102 8.08183 162.102C8.42274 162.102 8.72482 162.174 8.98808 162.318C9.25134 162.462 9.45778 162.656 9.6074 162.901C9.75702 163.145 9.83183 163.417 9.83183 163.716C9.83183 163.93 9.79301 164.139 9.71535 164.344C9.6396 164.546 9.50702 164.773 9.31763 165.023C9.13013 165.271 8.86971 165.574 8.53638 165.932L7.22956 167.33V167.375H9.9341V168H6.26365ZM13.0051 168.08C12.5771 168.08 12.2125 167.963 11.9114 167.73C11.6102 167.495 11.3801 167.155 11.221 166.71C11.0619 166.263 10.9824 165.723 10.9824 165.091C10.9824 164.462 11.0619 163.925 11.221 163.48C11.382 163.033 11.6131 162.692 11.9142 162.457C12.2172 162.221 12.5809 162.102 13.0051 162.102C13.4294 162.102 13.7921 162.221 14.0932 162.457C14.3962 162.692 14.6273 163.033 14.7864 163.48C14.9474 163.925 15.0279 164.462 15.0279 165.091C15.0279 165.723 14.9483 166.263 14.7892 166.71C14.6301 167.155 14.4 167.495 14.0989 167.73C13.7977 167.963 13.4332 168.08 13.0051 168.08ZM13.0051 167.455C13.4294 167.455 13.7589 167.25 13.9938 166.841C14.2286 166.432 14.346 165.848 14.346 165.091C14.346 164.587 14.2921 164.158 14.1841 163.804C14.078 163.45 13.9246 163.18 13.7239 162.994C13.525 162.809 13.2854 162.716 13.0051 162.716C12.5847 162.716 12.2561 162.923 12.0193 163.338C11.7826 163.751 11.6642 164.335 11.6642 165.091C11.6642 165.595 11.7172 166.023 11.8233 166.375C11.9294 166.727 12.0818 166.995 12.2807 167.179C12.4815 167.363 12.7229 167.455 13.0051 167.455Z" fill="#6E6E6E"/>
<path d="M4.71194 126.807V126.227L7.26876 122.182H7.68921V123.08H7.40512L5.47331 126.136V126.182H8.91649V126.807H4.71194ZM7.45058 128V126.631V126.361V122.182H8.12103V128H7.45058ZM11.8788 128.08C11.4508 128.08 11.0862 127.963 10.7851 127.73C10.484 127.495 10.2538 127.155 10.0948 126.71C9.93566 126.263 9.85612 125.723 9.85612 125.091C9.85612 124.462 9.93566 123.925 10.0948 123.48C10.2557 123.033 10.4868 122.692 10.7879 122.457C11.091 122.221 11.4546 122.102 11.8788 122.102C12.3031 122.102 12.6658 122.221 12.9669 122.457C13.2699 122.692 13.501 123.033 13.6601 123.48C13.8211 123.925 13.9016 124.462 13.9016 125.091C13.9016 125.723 13.822 126.263 13.6629 126.71C13.5038 127.155 13.2737 127.495 12.9726 127.73C12.6715 127.963 12.3069 128.08 11.8788 128.08ZM11.8788 127.455C12.3031 127.455 12.6326 127.25 12.8675 126.841C13.1023 126.432 13.2198 125.848 13.2198 125.091C13.2198 124.587 13.1658 124.158 13.0578 123.804C12.9518 123.45 12.7984 123.18 12.5976 122.994C12.3987 122.809 12.1591 122.716 11.8788 122.716C11.4584 122.716 11.1298 122.923 10.893 123.338C10.6563 123.751 10.5379 124.335 10.5379 125.091C10.5379 125.595 10.591 126.023 10.697 126.375C10.8031 126.727 10.9555 126.995 11.1544 127.179C11.3552 127.363 11.5966 127.455 11.8788 127.455Z" fill="#6E6E6E"/>
<path d="M8.19547 88.0795C7.95683 88.0758 7.7182 88.0303 7.47956 87.9432C7.24092 87.8561 7.02312 87.7093 6.82615 87.5028C6.62918 87.2945 6.47104 87.0133 6.35172 86.6591C6.2324 86.303 6.17274 85.8561 6.17274 85.3182C6.17274 84.803 6.22104 84.3466 6.31763 83.9489C6.41422 83.5492 6.55437 83.2131 6.73808 82.9403C6.92179 82.6657 7.14338 82.4574 7.40285 82.3153C7.66422 82.1733 7.95873 82.1023 8.28638 82.1023C8.61213 82.1023 8.90191 82.1676 9.1557 82.2983C9.41138 82.4271 9.61971 82.607 9.7807 82.8381C9.94168 83.0691 10.0458 83.3352 10.0932 83.6364H9.40001C9.33562 83.375 9.21062 83.1581 9.02501 82.9858C8.83941 82.8134 8.5932 82.7273 8.28638 82.7273C7.83562 82.7273 7.48051 82.9233 7.22104 83.3153C6.96346 83.7074 6.83373 84.2576 6.83183 84.9659H6.87729C6.98335 84.8049 7.10929 84.6676 7.25513 84.554C7.40285 84.4384 7.56573 84.3494 7.74376 84.2869C7.92179 84.2244 8.11024 84.1932 8.3091 84.1932C8.64244 84.1932 8.94736 84.2765 9.22388 84.4432C9.50039 84.608 9.72198 84.8362 9.88865 85.1278C10.0553 85.4176 10.1386 85.75 10.1386 86.125C10.1386 86.4848 10.0582 86.8144 9.89717 87.1136C9.73619 87.411 9.50986 87.6477 9.2182 87.8239C8.92842 87.9981 8.58751 88.0833 8.19547 88.0795ZM8.19547 87.4545C8.4341 87.4545 8.64812 87.3949 8.83751 87.2756C9.0288 87.1562 9.17937 86.9962 9.28922 86.7955C9.40096 86.5947 9.45683 86.3712 9.45683 86.125C9.45683 85.8845 9.40285 85.6657 9.2949 85.4688C9.18884 85.2699 9.04206 85.1117 8.85456 84.9943C8.66895 84.8769 8.45683 84.8182 8.2182 84.8182C8.03827 84.8182 7.87066 84.8542 7.71535 84.9261C7.56005 84.9962 7.42369 85.0928 7.30626 85.2159C7.19073 85.339 7.09982 85.4801 7.03354 85.6392C6.96725 85.7964 6.9341 85.9621 6.9341 86.1364C6.9341 86.3674 6.98808 86.5833 7.09604 86.7841C7.20588 86.9848 7.35551 87.1468 7.5449 87.2699C7.73619 87.393 7.95304 87.4545 8.19547 87.4545ZM13.1536 88.0795C12.7255 88.0795 12.361 87.9631 12.0598 87.7301C11.7587 87.4953 11.5286 87.1553 11.3695 86.7102C11.2104 86.2633 11.1308 85.7235 11.1308 85.0909C11.1308 84.4621 11.2104 83.9252 11.3695 83.4801C11.5305 83.0331 11.7615 82.6922 12.0627 82.4574C12.3657 82.2206 12.7293 82.1023 13.1536 82.1023C13.5778 82.1023 13.9405 82.2206 14.2416 82.4574C14.5447 82.6922 14.7757 83.0331 14.9348 83.4801C15.0958 83.9252 15.1763 84.4621 15.1763 85.0909C15.1763 85.7235 15.0967 86.2633 14.9377 86.7102C14.7786 87.1553 14.5485 87.4953 14.2473 87.7301C13.9462 87.9631 13.5816 88.0795 13.1536 88.0795ZM13.1536 87.4545C13.5778 87.4545 13.9074 87.25 14.1422 86.8409C14.377 86.4318 14.4945 85.8485 14.4945 85.0909C14.4945 84.5871 14.4405 84.1581 14.3325 83.804C14.2265 83.4498 14.0731 83.1799 13.8723 82.9943C13.6735 82.8087 13.4339 82.7159 13.1536 82.7159C12.7331 82.7159 12.4045 82.9233 12.1678 83.3381C11.931 83.7509 11.8127 84.3352 11.8127 85.0909C11.8127 85.5947 11.8657 86.0227 11.9717 86.375C12.0778 86.7273 12.2303 86.9953 12.4291 87.179C12.6299 87.3627 12.8714 87.4545 13.1536 87.4545Z" fill="#6E6E6E"/>
<path d="M8.12729 48.0795C7.73713 48.0795 7.39244 48.0104 7.0932 47.8722C6.79585 47.732 6.56384 47.5398 6.39717 47.2955C6.23051 47.0492 6.14812 46.7689 6.15001 46.4545C6.14812 46.2083 6.19641 45.9811 6.2949 45.7727C6.39338 45.5625 6.52785 45.3873 6.69831 45.2472C6.87066 45.1051 7.06289 45.0152 7.27501 44.9773V44.9432C6.9966 44.8712 6.77501 44.715 6.61024 44.4744C6.44547 44.232 6.36403 43.9564 6.36592 43.6477C6.36403 43.3523 6.43884 43.0881 6.59035 42.8551C6.74187 42.6222 6.9502 42.4384 7.21535 42.304C7.4824 42.1695 7.78638 42.1023 8.12729 42.1023C8.46441 42.1023 8.76554 42.1695 9.0307 42.304C9.29585 42.4384 9.50418 42.6222 9.6557 42.8551C9.8091 43.0881 9.88676 43.3523 9.88865 43.6477C9.88676 43.9564 9.80248 44.232 9.63581 44.4744C9.47104 44.715 9.25229 44.8712 8.97956 44.9432V44.9773C9.18979 45.0152 9.37918 45.1051 9.54774 45.2472C9.7163 45.3873 9.85077 45.5625 9.95115 45.7727C10.0515 45.9811 10.1027 46.2083 10.1046 46.4545C10.1027 46.7689 10.0174 47.0492 9.84888 47.2955C9.68221 47.5398 9.4502 47.732 9.15285 47.8722C8.8574 48.0104 8.51554 48.0795 8.12729 48.0795ZM8.12729 47.4545C8.39054 47.4545 8.61782 47.4119 8.8091 47.3267C9.00039 47.2415 9.14812 47.1212 9.25229 46.9659C9.35645 46.8106 9.40948 46.6288 9.41138 46.4205C9.40948 46.2008 9.35266 46.0066 9.24092 45.8381C9.12918 45.6695 8.97672 45.5369 8.78354 45.4403C8.59225 45.3437 8.3735 45.2955 8.12729 45.2955C7.87918 45.2955 7.65759 45.3437 7.46251 45.4403C7.26933 45.5369 7.11687 45.6695 7.00513 45.8381C6.89528 46.0066 6.8413 46.2008 6.8432 46.4205C6.8413 46.6288 6.89149 46.8106 6.99376 46.9659C7.09793 47.1212 7.2466 47.2415 7.43979 47.3267C7.63297 47.4119 7.86213 47.4545 8.12729 47.4545ZM8.12729 44.6932C8.33562 44.6932 8.52028 44.6515 8.68126 44.5682C8.84414 44.4848 8.97198 44.3684 9.06479 44.2188C9.15759 44.0691 9.20494 43.8939 9.20683 43.6932C9.20494 43.4962 9.15854 43.3248 9.06763 43.179C8.97672 43.0312 8.85077 42.9176 8.68979 42.8381C8.5288 42.7566 8.3413 42.7159 8.12729 42.7159C7.90948 42.7159 7.71914 42.7566 7.55626 42.8381C7.39338 42.9176 7.26744 43.0312 7.17842 43.179C7.08941 43.3248 7.04585 43.4962 7.04774 43.6932C7.04585 43.8939 7.09035 44.0691 7.18126 44.2188C7.27407 44.3684 7.40191 44.4848 7.56479 44.5682C7.72766 44.6515 7.91516 44.6932 8.12729 44.6932ZM13.0911 48.0795C12.663 48.0795 12.2985 47.9631 11.9973 47.7301C11.6962 47.4953 11.4661 47.1553 11.307 46.7102C11.1479 46.2633 11.0683 45.7235 11.0683 45.0909C11.0683 44.4621 11.1479 43.9252 11.307 43.4801C11.468 43.0331 11.699 42.6922 12.0002 42.4574C12.3032 42.2206 12.6668 42.1023 13.0911 42.1023C13.5153 42.1023 13.878 42.2206 14.1791 42.4574C14.4822 42.6922 14.7132 43.0331 14.8723 43.4801C15.0333 43.9252 15.1138 44.4621 15.1138 45.0909C15.1138 45.7235 15.0342 46.2633 14.8752 46.7102C14.7161 47.1553 14.486 47.4953 14.1848 47.7301C13.8837 47.9631 13.5191 48.0795 13.0911 48.0795ZM13.0911 47.4545C13.5153 47.4545 13.8449 47.25 14.0797 46.8409C14.3145 46.4318 14.432 45.8485 14.432 45.0909C14.432 44.5871 14.378 44.1581 14.27 43.804C14.164 43.4498 14.0106 43.1799 13.8098 42.9943C13.611 42.8087 13.3714 42.7159 13.0911 42.7159C12.6706 42.7159 12.342 42.9233 12.1053 43.3381C11.8685 43.7509 11.7502 44.3352 11.7502 45.0909C11.7502 45.5947 11.8032 46.0227 11.9092 46.375C12.0153 46.7273 12.1678 46.9953 12.3666 47.179C12.5674 47.3627 12.8089 47.4545 13.0911 47.4545Z" fill="#6E6E6E"/>
<path d="M2.64773 2.18182V8H1.94318V2.92045H1.90909L0.488636 3.86364V3.14773L1.94318 2.18182H2.64773ZM6.21875 8.07955C5.79072 8.07955 5.42614 7.96307 5.125 7.73011C4.82386 7.49527 4.59375 7.1553 4.43466 6.71023C4.27557 6.26326 4.19602 5.72348 4.19602 5.09091C4.19602 4.46212 4.27557 3.92519 4.43466 3.48011C4.59564 3.03314 4.8267 2.69223 5.12784 2.45739C5.43087 2.22064 5.79451 2.10227 6.21875 2.10227C6.64299 2.10227 7.00568 2.22064 7.30682 2.45739C7.60985 2.69223 7.84091 3.03314 8 3.48011C8.16098 3.92519 8.24148 4.46212 8.24148 5.09091C8.24148 5.72348 8.16193 6.26326 8.00284 6.71023C7.84375 7.1553 7.61364 7.49527 7.3125 7.73011C7.01136 7.96307 6.64678 8.07955 6.21875 8.07955ZM6.21875 7.45455C6.64299 7.45455 6.97254 7.25 7.20739 6.84091C7.44223 6.43182 7.55966 5.84848 7.55966 5.09091C7.55966 4.58712 7.50568 4.15814 7.39773 3.80398C7.29167 3.44981 7.13826 3.17992 6.9375 2.99432C6.73864 2.80871 6.49905 2.71591 6.21875 2.71591C5.7983 2.71591 5.4697 2.9233 5.23295 3.33807C4.99621 3.75095 4.87784 4.33523 4.87784 5.09091C4.87784 5.5947 4.93087 6.02273 5.03693 6.375C5.14299 6.72727 5.29545 6.99527 5.49432 7.17898C5.69508 7.36269 5.93655 7.45455 6.21875 7.45455ZM11.2188 8.07955C10.7907 8.07955 10.4261 7.96307 10.125 7.73011C9.82386 7.49527 9.59375 7.1553 9.43466 6.71023C9.27557 6.26326 9.19602 5.72348 9.19602 5.09091C9.19602 4.46212 9.27557 3.92519 9.43466 3.48011C9.59564 3.03314 9.8267 2.69223 10.1278 2.45739C10.4309 2.22064 10.7945 2.10227 11.2188 2.10227C11.643 2.10227 12.0057 2.22064 12.3068 2.45739C12.6098 2.69223 12.8409 3.03314 13 3.48011C13.161 3.92519 13.2415 4.46212 13.2415 5.09091C13.2415 5.72348 13.1619 6.26326 13.0028 6.71023C12.8438 7.1553 12.6136 7.49527 12.3125 7.73011C12.0114 7.96307 11.6468 8.07955 11.2188 8.07955ZM11.2188 7.45455C11.643 7.45455 11.9725 7.25 12.2074 6.84091C12.4422 6.43182 12.5597 5.84848 12.5597 5.09091C12.5597 4.58712 12.5057 4.15814 12.3977 3.80398C12.2917 3.44981 12.1383 3.17992 11.9375 2.99432C11.7386 2.80871 11.4991 2.71591 11.2188 2.71591C10.7983 2.71591 10.4697 2.9233 10.233 3.33807C9.99621 3.75095 9.87784 4.33523 9.87784 5.09091C9.87784 5.5947 9.93087 6.02273 10.0369 6.375C10.143 6.72727 10.2955 6.99527 10.4943 7.17898C10.6951 7.36269 10.9366 7.45455 11.2188 7.45455Z" fill="#6E6E6E"/>
<path d="M26.7087 207.182V213H26.0042V207.92H25.9701L24.5496 208.864V208.148L26.0042 207.182H26.7087Z" fill="#6E6E6E"/>
<path d="M623.066 213V212.489L624.987 210.386C625.212 210.14 625.398 209.926 625.543 209.744C625.689 209.561 625.797 209.388 625.867 209.227C625.939 209.064 625.975 208.894 625.975 208.716C625.975 208.511 625.926 208.334 625.828 208.185C625.731 208.035 625.598 207.92 625.43 207.838C625.261 207.757 625.072 207.716 624.862 207.716C624.638 207.716 624.443 207.762 624.276 207.855C624.112 207.946 623.984 208.074 623.893 208.239C623.804 208.403 623.759 208.597 623.759 208.818H623.089C623.089 208.477 623.167 208.178 623.325 207.92C623.482 207.663 623.696 207.462 623.967 207.318C624.239 207.174 624.545 207.102 624.884 207.102C625.225 207.102 625.527 207.174 625.791 207.318C626.054 207.462 626.26 207.656 626.41 207.901C626.56 208.145 626.634 208.417 626.634 208.716C626.634 208.93 626.595 209.139 626.518 209.344C626.442 209.546 626.31 209.773 626.12 210.023C625.933 210.271 625.672 210.574 625.339 210.932L624.032 212.33V212.375H626.737V213H623.066ZM629.955 207.182V213H629.251V207.92H629.217L627.796 208.864V208.148L629.251 207.182H629.955Z" fill="#6E6E6E"/>
<path d="M285.243 207.182V213H284.538V207.92H284.504L283.084 208.864V208.148L284.538 207.182H285.243ZM288.962 207.182V213H288.257V207.92H288.223L286.803 208.864V208.148L288.257 207.182H288.962Z" fill="#6E6E6E"/>
<path d="M226.371 207.102C226.61 207.104 226.849 207.15 227.087 207.239C227.326 207.328 227.544 207.475 227.741 207.682C227.938 207.886 228.096 208.166 228.215 208.52C228.334 208.874 228.394 209.318 228.394 209.852C228.394 210.369 228.345 210.829 228.246 211.23C228.15 211.63 228.01 211.967 227.826 212.241C227.644 212.516 227.423 212.724 227.161 212.866C226.902 213.009 226.608 213.08 226.281 213.08C225.955 213.08 225.664 213.015 225.408 212.886C225.155 212.756 224.946 212.575 224.783 212.344C224.622 212.111 224.519 211.841 224.474 211.534H225.167C225.229 211.801 225.353 212.022 225.539 212.196C225.727 212.368 225.974 212.455 226.281 212.455C226.729 212.455 227.084 212.259 227.343 211.866C227.604 211.474 227.735 210.92 227.735 210.205H227.69C227.584 210.364 227.458 210.501 227.312 210.616C227.166 210.732 227.004 210.821 226.826 210.884C226.648 210.946 226.459 210.977 226.258 210.977C225.924 210.977 225.619 210.895 225.34 210.73C225.064 210.563 224.842 210.335 224.675 210.045C224.511 209.754 224.428 209.42 224.428 209.045C224.428 208.689 224.508 208.364 224.667 208.068C224.828 207.771 225.053 207.534 225.343 207.358C225.635 207.182 225.977 207.097 226.371 207.102ZM226.371 207.727C226.133 207.727 225.918 207.787 225.727 207.906C225.537 208.024 225.387 208.183 225.275 208.384C225.165 208.582 225.11 208.803 225.11 209.045C225.11 209.288 225.163 209.509 225.269 209.707C225.377 209.904 225.524 210.062 225.709 210.179C225.897 210.295 226.11 210.352 226.349 210.352C226.529 210.352 226.696 210.317 226.852 210.247C227.007 210.175 227.142 210.078 227.258 209.955C227.375 209.83 227.467 209.688 227.533 209.531C227.6 209.372 227.633 209.206 227.633 209.034C227.633 208.807 227.578 208.594 227.468 208.395C227.36 208.196 227.21 208.035 227.019 207.912C226.83 207.789 226.614 207.727 226.371 207.727Z" fill="#6E6E6E"/>
<path d="M554.814 207.182V213H554.109V207.92H554.075L552.655 208.864V208.148L554.109 207.182H554.814ZM558.34 207.102C558.578 207.104 558.817 207.15 559.055 207.239C559.294 207.328 559.512 207.475 559.709 207.682C559.906 207.886 560.064 208.166 560.183 208.52C560.303 208.874 560.362 209.318 560.362 209.852C560.362 210.369 560.313 210.829 560.215 211.23C560.118 211.63 559.978 211.967 559.794 212.241C559.612 212.516 559.391 212.724 559.129 212.866C558.87 213.009 558.576 213.08 558.249 213.08C557.923 213.08 557.632 213.015 557.376 212.886C557.123 212.756 556.914 212.575 556.751 212.344C556.591 212.111 556.487 211.841 556.442 211.534H557.135C557.198 211.801 557.322 212.022 557.507 212.196C557.695 212.368 557.942 212.455 558.249 212.455C558.698 212.455 559.052 212.259 559.311 211.866C559.573 211.474 559.703 210.92 559.703 210.205H559.658C559.552 210.364 559.426 210.501 559.28 210.616C559.134 210.732 558.972 210.821 558.794 210.884C558.616 210.946 558.427 210.977 558.226 210.977C557.893 210.977 557.587 210.895 557.308 210.73C557.032 210.563 556.81 210.335 556.644 210.045C556.479 209.754 556.396 209.42 556.396 209.045C556.396 208.689 556.476 208.364 556.635 208.068C556.796 207.771 557.021 207.534 557.311 207.358C557.603 207.182 557.946 207.097 558.34 207.102ZM558.34 207.727C558.101 207.727 557.886 207.787 557.695 207.906C557.505 208.024 557.355 208.183 557.243 208.384C557.133 208.582 557.078 208.803 557.078 209.045C557.078 209.288 557.131 209.509 557.237 209.707C557.345 209.904 557.492 210.062 557.678 210.179C557.865 210.295 558.078 210.352 558.317 210.352C558.497 210.352 558.664 210.317 558.82 210.247C558.975 210.175 559.11 210.078 559.226 209.955C559.343 209.83 559.435 209.688 559.501 209.531C559.568 209.372 559.601 209.206 559.601 209.034C559.601 208.807 559.546 208.594 559.436 208.395C559.328 208.196 559.179 208.035 558.987 207.912C558.798 207.789 558.582 207.727 558.34 207.727Z" fill="#6E6E6E"/>
<path d="M127.571 213.08C127.238 213.08 126.938 213.013 126.671 212.881C126.404 212.748 126.19 212.566 126.029 212.335C125.868 212.104 125.78 211.841 125.765 211.545H126.446C126.473 211.809 126.592 212.027 126.804 212.199C127.018 212.369 127.274 212.455 127.571 212.455C127.81 212.455 128.022 212.399 128.208 212.287C128.395 212.175 128.542 212.022 128.648 211.827C128.756 211.63 128.81 211.407 128.81 211.159C128.81 210.905 128.754 210.679 128.642 210.48C128.533 210.279 128.381 210.121 128.188 210.006C127.995 209.89 127.774 209.831 127.526 209.83C127.348 209.828 127.165 209.855 126.978 209.912C126.79 209.967 126.636 210.038 126.515 210.125L125.856 210.045L126.208 207.182H129.231V207.807H126.799L126.594 209.523H126.628C126.748 209.428 126.897 209.349 127.077 209.287C127.257 209.224 127.445 209.193 127.64 209.193C127.996 209.193 128.313 209.278 128.591 209.449C128.872 209.617 129.091 209.848 129.25 210.142C129.411 210.436 129.492 210.771 129.492 211.148C129.492 211.519 129.409 211.85 129.242 212.142C129.077 212.432 128.85 212.661 128.56 212.83C128.27 212.996 127.941 213.08 127.571 213.08Z" fill="#6E6E6E"/>
<path d="M418.866 207.182V213H418.162V207.92H418.128L416.707 208.864V208.148L418.162 207.182H418.866ZM422.358 213.08C422.025 213.08 421.724 213.013 421.457 212.881C421.19 212.748 420.976 212.566 420.815 212.335C420.654 212.104 420.566 211.841 420.551 211.545H421.233C421.259 211.809 421.379 212.027 421.591 212.199C421.805 212.369 422.061 212.455 422.358 212.455C422.597 212.455 422.809 212.399 422.994 212.287C423.182 212.175 423.329 212.022 423.435 211.827C423.543 211.63 423.597 211.407 423.597 211.159C423.597 210.905 423.541 210.679 423.429 210.48C423.319 210.279 423.168 210.121 422.974 210.006C422.781 209.89 422.561 209.831 422.312 209.83C422.134 209.828 421.952 209.855 421.764 209.912C421.577 209.967 421.422 210.038 421.301 210.125L420.642 210.045L420.994 207.182H424.017V207.807H421.585L421.381 209.523H421.415C421.534 209.428 421.684 209.349 421.864 209.287C422.044 209.224 422.231 209.193 422.426 209.193C422.782 209.193 423.099 209.278 423.378 209.449C423.658 209.617 423.878 209.848 424.037 210.142C424.198 210.436 424.278 210.771 424.278 211.148C424.278 211.519 424.195 211.85 424.028 212.142C423.864 212.432 423.636 212.661 423.347 212.83C423.057 212.996 422.727 213.08 422.358 213.08Z" fill="#6E6E6E"/>
<path d="M73.6883 213.08C73.3133 213.08 72.979 213.015 72.6855 212.886C72.3938 212.758 72.1618 212.579 71.9894 212.349C71.819 212.118 71.7262 211.85 71.711 211.545H72.4269C72.4421 211.733 72.5065 211.895 72.6201 212.031C72.7338 212.166 72.8824 212.27 73.0661 212.344C73.2499 212.418 73.4535 212.455 73.6769 212.455C73.9269 212.455 74.1485 212.411 74.3417 212.324C74.5349 212.237 74.6864 212.116 74.7963 211.96C74.9061 211.805 74.961 211.625 74.961 211.42C74.961 211.206 74.908 211.018 74.8019 210.855C74.6959 210.69 74.5406 210.562 74.336 210.469C74.1315 210.376 73.8815 210.33 73.586 210.33H73.1201V209.705H73.586C73.8171 209.705 74.0197 209.663 74.194 209.58C74.3701 209.496 74.5074 209.379 74.6059 209.227C74.7063 209.076 74.7565 208.898 74.7565 208.693C74.7565 208.496 74.7129 208.325 74.6258 208.179C74.5387 208.033 74.4156 207.92 74.2565 207.838C74.0993 207.757 73.9137 207.716 73.6997 207.716C73.4989 207.716 73.3095 207.753 73.1315 207.827C72.9553 207.899 72.8114 208.004 72.6997 208.142C72.5879 208.278 72.5273 208.443 72.5178 208.636H71.836C71.8474 208.331 71.9392 208.064 72.1116 207.835C72.2839 207.604 72.5093 207.424 72.7877 207.295C73.068 207.167 73.3758 207.102 73.711 207.102C74.0709 207.102 74.3796 207.175 74.6372 207.321C74.8947 207.465 75.0927 207.655 75.2309 207.892C75.3692 208.129 75.4383 208.384 75.4383 208.659C75.4383 208.987 75.3521 209.266 75.1798 209.497C75.0093 209.728 74.7773 209.888 74.4838 209.977V210.023C74.8512 210.083 75.1381 210.24 75.3445 210.491C75.551 210.741 75.6542 211.051 75.6542 211.42C75.6542 211.737 75.568 212.021 75.3957 212.273C75.2252 212.523 74.9923 212.72 74.6968 212.864C74.4014 213.008 74.0652 213.08 73.6883 213.08Z" fill="#6E6E6E"/>
<path d="M693.364 213V212.489L695.284 210.386C695.51 210.14 695.695 209.926 695.841 209.744C695.987 209.561 696.095 209.388 696.165 209.227C696.237 209.064 696.273 208.894 696.273 208.716C696.273 208.511 696.224 208.334 696.125 208.185C696.029 208.035 695.896 207.92 695.727 207.838C695.559 207.757 695.369 207.716 695.159 207.716C694.936 207.716 694.741 207.762 694.574 207.855C694.409 207.946 694.281 208.074 694.19 208.239C694.101 208.403 694.057 208.597 694.057 208.818H693.386C693.386 208.477 693.465 208.178 693.622 207.92C693.779 207.663 693.993 207.462 694.264 207.318C694.537 207.174 694.843 207.102 695.182 207.102C695.523 207.102 695.825 207.174 696.088 207.318C696.351 207.462 696.558 207.656 696.707 207.901C696.857 208.145 696.932 208.417 696.932 208.716C696.932 208.93 696.893 209.139 696.815 209.344C696.74 209.546 696.607 209.773 696.418 210.023C696.23 210.271 695.97 210.574 695.636 210.932L694.33 212.33V212.375H697.034V213H693.364ZM700.173 213.08C699.798 213.08 699.464 213.015 699.171 212.886C698.879 212.758 698.647 212.579 698.475 212.349C698.304 212.118 698.211 211.85 698.196 211.545H698.912C698.927 211.733 698.992 211.895 699.105 212.031C699.219 212.166 699.368 212.27 699.551 212.344C699.735 212.418 699.939 212.455 700.162 212.455C700.412 212.455 700.634 212.411 700.827 212.324C701.02 212.237 701.172 212.116 701.281 211.96C701.391 211.805 701.446 211.625 701.446 211.42C701.446 211.206 701.393 211.018 701.287 210.855C701.181 210.69 701.026 210.562 700.821 210.469C700.617 210.376 700.367 210.33 700.071 210.33H699.605V209.705H700.071C700.302 209.705 700.505 209.663 700.679 209.58C700.855 209.496 700.993 209.379 701.091 209.227C701.191 209.076 701.242 208.898 701.242 208.693C701.242 208.496 701.198 208.325 701.111 208.179C701.024 208.033 700.901 207.92 700.742 207.838C700.584 207.757 700.399 207.716 700.185 207.716C699.984 207.716 699.795 207.753 699.617 207.827C699.44 207.899 699.297 208.004 699.185 208.142C699.073 208.278 699.012 208.443 699.003 208.636H698.321C698.332 208.331 698.424 208.064 698.597 207.835C698.769 207.604 698.994 207.424 699.273 207.295C699.553 207.167 699.861 207.102 700.196 207.102C700.556 207.102 700.865 207.175 701.122 207.321C701.38 207.465 701.578 207.655 701.716 207.892C701.854 208.129 701.923 208.384 701.923 208.659C701.923 208.987 701.837 209.266 701.665 209.497C701.494 209.728 701.262 209.888 700.969 209.977V210.023C701.336 210.083 701.623 210.24 701.83 210.491C702.036 210.741 702.139 211.051 702.139 211.42C702.139 211.737 702.053 212.021 701.881 212.273C701.71 212.523 701.477 212.72 701.182 212.864C700.886 213.008 700.55 213.08 700.173 213.08Z" fill="#6E6E6E"/>
<path d="M350.893 207.182V213H350.188V207.92H350.154L348.734 208.864V208.148L350.188 207.182H350.893ZM354.532 213.08C354.157 213.08 353.823 213.015 353.529 212.886C353.237 212.758 353.005 212.579 352.833 212.349C352.662 212.118 352.57 211.85 352.555 211.545H353.27C353.286 211.733 353.35 211.895 353.464 212.031C353.577 212.166 353.726 212.27 353.91 212.344C354.093 212.418 354.297 212.455 354.52 212.455C354.77 212.455 354.992 212.411 355.185 212.324C355.378 212.237 355.53 212.116 355.64 211.96C355.75 211.805 355.805 211.625 355.805 211.42C355.805 211.206 355.752 211.018 355.645 210.855C355.539 210.69 355.384 210.562 355.18 210.469C354.975 210.376 354.725 210.33 354.43 210.33H353.964V209.705H354.43C354.661 209.705 354.863 209.663 355.037 209.58C355.214 209.496 355.351 209.379 355.449 209.227C355.55 209.076 355.6 208.898 355.6 208.693C355.6 208.496 355.556 208.325 355.469 208.179C355.382 208.033 355.259 207.92 355.1 207.838C354.943 207.757 354.757 207.716 354.543 207.716C354.342 207.716 354.153 207.753 353.975 207.827C353.799 207.899 353.655 208.004 353.543 208.142C353.431 208.278 353.371 208.443 353.361 208.636H352.68C352.691 208.331 352.783 208.064 352.955 207.835C353.127 207.604 353.353 207.424 353.631 207.295C353.912 207.167 354.219 207.102 354.555 207.102C354.914 207.102 355.223 207.175 355.481 207.321C355.738 207.465 355.936 207.655 356.074 207.892C356.213 208.129 356.282 208.384 356.282 208.659C356.282 208.987 356.196 209.266 356.023 209.497C355.853 209.728 355.621 209.888 355.327 209.977V210.023C355.695 210.083 355.982 210.24 356.188 210.491C356.394 210.741 356.498 211.051 356.498 211.42C356.498 211.737 356.412 212.021 356.239 212.273C356.069 212.523 355.836 212.72 355.54 212.864C355.245 213.008 354.909 213.08 354.532 213.08Z" fill="#6E6E6E"/>
<path d="M175.318 213L177.92 207.852V207.807H174.92V207.182H178.647V207.841L176.057 213H175.318Z" fill="#6E6E6E"/>
<path d="M486.84 207.182V213H486.136V207.92H486.102L484.681 208.864V208.148L486.136 207.182H486.84ZM488.695 213L491.298 207.852V207.807H488.298V207.182H492.025V207.841L489.434 213H488.695Z" fill="#6E6E6E"/>
<path d="M47.0309 213V212.489L48.9513 210.386C49.1767 210.14 49.3623 209.926 49.5081 209.744C49.654 209.561 49.7619 209.388 49.832 209.227C49.904 209.064 49.94 208.894 49.94 208.716C49.94 208.511 49.8907 208.334 49.7922 208.185C49.6956 208.035 49.5631 207.92 49.3945 207.838C49.2259 207.757 49.0365 207.716 48.8263 207.716C48.6028 207.716 48.4078 207.762 48.2411 207.855C48.0763 207.946 47.9485 208.074 47.8576 208.239C47.7686 208.403 47.724 208.597 47.724 208.818H47.0536C47.0536 208.477 47.1322 208.178 47.2894 207.92C47.4466 207.663 47.6606 207.462 47.9314 207.318C48.2042 207.174 48.51 207.102 48.849 207.102C49.19 207.102 49.492 207.174 49.7553 207.318C50.0186 207.462 50.225 207.656 50.3746 207.901C50.5242 208.145 50.599 208.417 50.599 208.716C50.599 208.93 50.5602 209.139 50.4826 209.344C50.4068 209.546 50.2742 209.773 50.0848 210.023C49.8973 210.271 49.6369 210.574 49.3036 210.932L47.9968 212.33V212.375H50.7013V213H47.0309Z" fill="#6E6E6E"/>
<path d="M657.053 213V212.489L658.974 210.386C659.199 210.14 659.385 209.926 659.53 209.744C659.676 209.561 659.784 209.388 659.854 209.227C659.926 209.064 659.962 208.894 659.962 208.716C659.962 208.511 659.913 208.334 659.814 208.185C659.718 208.035 659.585 207.92 659.417 207.838C659.248 207.757 659.059 207.716 658.849 207.716C658.625 207.716 658.43 207.762 658.263 207.855C658.099 207.946 657.971 208.074 657.88 208.239C657.791 208.403 657.746 208.597 657.746 208.818H657.076C657.076 208.477 657.154 208.178 657.312 207.92C657.469 207.663 657.683 207.462 657.954 207.318C658.226 207.174 658.532 207.102 658.871 207.102C659.212 207.102 659.514 207.174 659.778 207.318C660.041 207.462 660.247 207.656 660.397 207.901C660.546 208.145 660.621 208.417 660.621 208.716C660.621 208.93 660.582 209.139 660.505 209.344C660.429 209.546 660.296 209.773 660.107 210.023C659.92 210.271 659.659 210.574 659.326 210.932L658.019 212.33V212.375H660.724V213H657.053ZM661.897 213V212.489L663.817 210.386C664.043 210.14 664.228 209.926 664.374 209.744C664.52 209.561 664.628 209.388 664.698 209.227C664.77 209.064 664.806 208.894 664.806 208.716C664.806 208.511 664.757 208.334 664.658 208.185C664.562 208.035 664.429 207.92 664.26 207.838C664.092 207.757 663.903 207.716 663.692 207.716C663.469 207.716 663.274 207.762 663.107 207.855C662.942 207.946 662.814 208.074 662.724 208.239C662.635 208.403 662.59 208.597 662.59 208.818H661.92C661.92 208.477 661.998 208.178 662.155 207.92C662.313 207.663 662.527 207.462 662.797 207.318C663.07 207.174 663.376 207.102 663.715 207.102C664.056 207.102 664.358 207.174 664.621 207.318C664.885 207.462 665.091 207.656 665.241 207.901C665.39 208.145 665.465 208.417 665.465 208.716C665.465 208.93 665.426 209.139 665.349 209.344C665.273 209.546 665.14 209.773 664.951 210.023C664.763 210.271 664.503 210.574 664.17 210.932L662.863 212.33V212.375H665.567V213H661.897Z" fill="#6E6E6E"/>
<path d="M316.906 207.182V213H316.201V207.92H316.167L314.747 208.864V208.148L316.201 207.182H316.906ZM318.579 213V212.489L320.5 210.386C320.725 210.14 320.911 209.926 321.057 209.744C321.202 209.561 321.31 209.388 321.38 209.227C321.452 209.064 321.488 208.894 321.488 208.716C321.488 208.511 321.439 208.334 321.341 208.185C321.244 208.035 321.112 207.92 320.943 207.838C320.774 207.757 320.585 207.716 320.375 207.716C320.151 207.716 319.956 207.762 319.79 207.855C319.625 207.946 319.497 208.074 319.406 208.239C319.317 208.403 319.273 208.597 319.273 208.818H318.602C318.602 208.477 318.681 208.178 318.838 207.92C318.995 207.663 319.209 207.462 319.48 207.318C319.753 207.174 320.058 207.102 320.398 207.102C320.738 207.102 321.04 207.174 321.304 207.318C321.567 207.462 321.773 207.656 321.923 207.901C322.073 208.145 322.148 208.417 322.148 208.716C322.148 208.93 322.109 209.139 322.031 209.344C321.955 209.546 321.823 209.773 321.633 210.023C321.446 210.271 321.185 210.574 320.852 210.932L319.545 212.33V212.375H322.25V213H318.579Z" fill="#6E6E6E"/>
<path d="M251.256 207.182V213H250.551V207.92H250.517L249.097 208.864V208.148L250.551 207.182H251.256ZM254.827 213.08C254.399 213.08 254.034 212.963 253.733 212.73C253.432 212.495 253.202 212.155 253.043 211.71C252.884 211.263 252.804 210.723 252.804 210.091C252.804 209.462 252.884 208.925 253.043 208.48C253.204 208.033 253.435 207.692 253.736 207.457C254.039 207.221 254.403 207.102 254.827 207.102C255.251 207.102 255.614 207.221 255.915 207.457C256.218 207.692 256.449 208.033 256.608 208.48C256.769 208.925 256.85 209.462 256.85 210.091C256.85 210.723 256.77 211.263 256.611 211.71C256.452 212.155 256.222 212.495 255.921 212.73C255.619 212.963 255.255 213.08 254.827 213.08ZM254.827 212.455C255.251 212.455 255.581 212.25 255.815 211.841C256.05 211.432 256.168 210.848 256.168 210.091C256.168 209.587 256.114 209.158 256.006 208.804C255.9 208.45 255.746 208.18 255.546 207.994C255.347 207.809 255.107 207.716 254.827 207.716C254.406 207.716 254.078 207.923 253.841 208.338C253.604 208.751 253.486 209.335 253.486 210.091C253.486 210.595 253.539 211.023 253.645 211.375C253.751 211.727 253.903 211.995 254.102 212.179C254.303 212.363 254.545 212.455 254.827 212.455Z" fill="#6E6E6E"/>
<path d="M586.756 213V212.489L588.676 210.386C588.902 210.14 589.087 209.926 589.233 209.744C589.379 209.561 589.487 209.388 589.557 209.227C589.629 209.064 589.665 208.894 589.665 208.716C589.665 208.511 589.616 208.334 589.517 208.185C589.42 208.035 589.288 207.92 589.119 207.838C588.951 207.757 588.761 207.716 588.551 207.716C588.328 207.716 588.133 207.762 587.966 207.855C587.801 207.946 587.673 208.074 587.582 208.239C587.493 208.403 587.449 208.597 587.449 208.818H586.778C586.778 208.477 586.857 208.178 587.014 207.92C587.171 207.663 587.385 207.462 587.656 207.318C587.929 207.174 588.235 207.102 588.574 207.102C588.915 207.102 589.217 207.174 589.48 207.318C589.743 207.462 589.95 207.656 590.099 207.901C590.249 208.145 590.324 208.417 590.324 208.716C590.324 208.93 590.285 209.139 590.207 209.344C590.132 209.546 589.999 209.773 589.81 210.023C589.622 210.271 589.362 210.574 589.028 210.932L587.722 212.33V212.375H590.426V213H586.756ZM593.497 213.08C593.069 213.08 592.705 212.963 592.403 212.73C592.102 212.495 591.872 212.155 591.713 211.71C591.554 211.263 591.474 210.723 591.474 210.091C591.474 209.462 591.554 208.925 591.713 208.48C591.874 208.033 592.105 207.692 592.406 207.457C592.709 207.221 593.073 207.102 593.497 207.102C593.921 207.102 594.284 207.221 594.585 207.457C594.888 207.692 595.119 208.033 595.278 208.48C595.439 208.925 595.52 209.462 595.52 210.091C595.52 210.723 595.44 211.263 595.281 211.71C595.122 212.155 594.892 212.495 594.591 212.73C594.29 212.963 593.925 213.08 593.497 213.08ZM593.497 212.455C593.921 212.455 594.251 212.25 594.486 211.841C594.721 211.432 594.838 210.848 594.838 210.091C594.838 209.587 594.784 209.158 594.676 208.804C594.57 208.45 594.417 208.18 594.216 207.994C594.017 207.809 593.777 207.716 593.497 207.716C593.077 207.716 592.748 207.923 592.511 208.338C592.275 208.751 592.156 209.335 592.156 210.091C592.156 210.595 592.209 211.023 592.315 211.375C592.421 211.727 592.574 211.995 592.773 212.179C592.974 212.363 593.215 212.455 593.497 212.455Z" fill="#6E6E6E"/>
<path d="M152.376 213.08C152.138 213.076 151.899 213.03 151.66 212.943C151.422 212.856 151.204 212.709 151.007 212.503C150.81 212.295 150.652 212.013 150.533 211.659C150.413 211.303 150.354 210.856 150.354 210.318C150.354 209.803 150.402 209.347 150.499 208.949C150.595 208.549 150.735 208.213 150.919 207.94C151.103 207.666 151.324 207.457 151.584 207.315C151.845 207.173 152.14 207.102 152.467 207.102C152.793 207.102 153.083 207.168 153.337 207.298C153.592 207.427 153.801 207.607 153.962 207.838C154.123 208.069 154.227 208.335 154.274 208.636H153.581C153.517 208.375 153.392 208.158 153.206 207.986C153.02 207.813 152.774 207.727 152.467 207.727C152.017 207.727 151.661 207.923 151.402 208.315C151.144 208.707 151.015 209.258 151.013 209.966H151.058C151.164 209.805 151.29 209.668 151.436 209.554C151.584 209.438 151.747 209.349 151.925 209.287C152.103 209.224 152.291 209.193 152.49 209.193C152.823 209.193 153.128 209.277 153.405 209.443C153.681 209.608 153.903 209.836 154.07 210.128C154.236 210.418 154.32 210.75 154.32 211.125C154.32 211.485 154.239 211.814 154.078 212.114C153.917 212.411 153.691 212.648 153.399 212.824C153.109 212.998 152.768 213.083 152.376 213.08ZM152.376 212.455C152.615 212.455 152.829 212.395 153.018 212.276C153.21 212.156 153.36 211.996 153.47 211.795C153.582 211.595 153.638 211.371 153.638 211.125C153.638 210.884 153.584 210.666 153.476 210.469C153.37 210.27 153.223 210.112 153.035 209.994C152.85 209.877 152.638 209.818 152.399 209.818C152.219 209.818 152.052 209.854 151.896 209.926C151.741 209.996 151.605 210.093 151.487 210.216C151.372 210.339 151.281 210.48 151.214 210.639C151.148 210.796 151.115 210.962 151.115 211.136C151.115 211.367 151.169 211.583 151.277 211.784C151.387 211.985 151.536 212.147 151.726 212.27C151.917 212.393 152.134 212.455 152.376 212.455Z" fill="#6E6E6E"/>
<path d="M452.854 207.182V213H452.149V207.92H452.115L450.694 208.864V208.148L452.149 207.182H452.854ZM456.459 213.08C456.22 213.076 455.981 213.03 455.743 212.943C455.504 212.856 455.286 212.709 455.089 212.503C454.892 212.295 454.734 212.013 454.615 211.659C454.496 211.303 454.436 210.856 454.436 210.318C454.436 209.803 454.484 209.347 454.581 208.949C454.677 208.549 454.818 208.213 455.001 207.94C455.185 207.666 455.407 207.457 455.666 207.315C455.927 207.173 456.222 207.102 456.55 207.102C456.875 207.102 457.165 207.168 457.419 207.298C457.675 207.427 457.883 207.607 458.044 207.838C458.205 208.069 458.309 208.335 458.356 208.636H457.663C457.599 208.375 457.474 208.158 457.288 207.986C457.103 207.813 456.856 207.727 456.55 207.727C456.099 207.727 455.744 207.923 455.484 208.315C455.227 208.707 455.097 209.258 455.095 209.966H455.14C455.247 209.805 455.372 209.668 455.518 209.554C455.666 209.438 455.829 209.349 456.007 209.287C456.185 209.224 456.373 209.193 456.572 209.193C456.906 209.193 457.211 209.277 457.487 209.443C457.764 209.608 457.985 209.836 458.152 210.128C458.319 210.418 458.402 210.75 458.402 211.125C458.402 211.485 458.321 211.814 458.16 212.114C457.999 212.411 457.773 212.648 457.481 212.824C457.192 212.998 456.851 213.083 456.459 213.08ZM456.459 212.455C456.697 212.455 456.911 212.395 457.101 212.276C457.292 212.156 457.443 211.996 457.552 211.795C457.664 211.595 457.72 211.371 457.72 211.125C457.72 210.884 457.666 210.666 457.558 210.469C457.452 210.27 457.305 210.112 457.118 209.994C456.932 209.877 456.72 209.818 456.481 209.818C456.301 209.818 456.134 209.854 455.979 209.926C455.823 209.996 455.687 210.093 455.569 210.216C455.454 210.339 455.363 210.48 455.297 210.639C455.23 210.796 455.197 210.962 455.197 211.136C455.197 211.367 455.251 211.583 455.359 211.784C455.469 211.985 455.619 212.147 455.808 212.27C455.999 212.393 456.216 212.455 456.459 212.455Z" fill="#6E6E6E"/>
<path d="M98.6014 211.807V211.227L101.158 207.182H101.579V208.08H101.295L99.3628 211.136V211.182H102.806V211.807H98.6014ZM101.34 213V211.631V211.361V207.182H102.01V213H101.34Z" fill="#6E6E6E"/>
<path d="M384.88 207.182V213H384.175V207.92H384.141L382.721 208.864V208.148L384.175 207.182H384.88ZM386.417 211.807V211.227L388.973 207.182H389.394V208.08H389.11L387.178 211.136V211.182H390.621V211.807H386.417ZM389.155 213V211.631V211.361V207.182H389.826V213H389.155Z" fill="#6E6E6E"/>
<path d="M201.691 213.08C201.301 213.08 200.956 213.01 200.657 212.872C200.36 212.732 200.128 212.54 199.961 212.295C199.794 212.049 199.712 211.769 199.714 211.455C199.712 211.208 199.76 210.981 199.859 210.773C199.957 210.562 200.092 210.387 200.262 210.247C200.435 210.105 200.627 210.015 200.839 209.977V209.943C200.56 209.871 200.339 209.715 200.174 209.474C200.009 209.232 199.928 208.956 199.93 208.648C199.928 208.352 200.003 208.088 200.154 207.855C200.306 207.622 200.514 207.438 200.779 207.304C201.046 207.17 201.35 207.102 201.691 207.102C202.028 207.102 202.329 207.17 202.595 207.304C202.86 207.438 203.068 207.622 203.22 207.855C203.373 208.088 203.451 208.352 203.452 208.648C203.451 208.956 203.366 209.232 203.2 209.474C203.035 209.715 202.816 209.871 202.543 209.943V209.977C202.754 210.015 202.943 210.105 203.112 210.247C203.28 210.387 203.415 210.562 203.515 210.773C203.615 210.981 203.667 211.208 203.668 211.455C203.667 211.769 203.581 212.049 203.413 212.295C203.246 212.54 203.014 212.732 202.717 212.872C202.421 213.01 202.079 213.08 201.691 213.08ZM201.691 212.455C201.954 212.455 202.182 212.412 202.373 212.327C202.564 212.241 202.712 212.121 202.816 211.966C202.92 211.811 202.973 211.629 202.975 211.42C202.973 211.201 202.917 211.007 202.805 210.838C202.693 210.67 202.541 210.537 202.347 210.44C202.156 210.344 201.937 210.295 201.691 210.295C201.443 210.295 201.221 210.344 201.026 210.44C200.833 210.537 200.681 210.67 200.569 210.838C200.459 211.007 200.405 211.201 200.407 211.42C200.405 211.629 200.455 211.811 200.558 211.966C200.662 212.121 200.81 212.241 201.004 212.327C201.197 212.412 201.426 212.455 201.691 212.455ZM201.691 209.693C201.899 209.693 202.084 209.652 202.245 209.568C202.408 209.485 202.536 209.368 202.629 209.219C202.721 209.069 202.769 208.894 202.771 208.693C202.769 208.496 202.722 208.325 202.631 208.179C202.541 208.031 202.415 207.918 202.254 207.838C202.093 207.757 201.905 207.716 201.691 207.716C201.473 207.716 201.283 207.757 201.12 207.838C200.957 207.918 200.831 208.031 200.742 208.179C200.653 208.325 200.61 208.496 200.612 208.693C200.61 208.894 200.654 209.069 200.745 209.219C200.838 209.368 200.966 209.485 201.129 209.568C201.292 209.652 201.479 209.693 201.691 209.693Z" fill="#6E6E6E"/>
<path d="M520.827 207.182V213H520.123V207.92H520.089L518.668 208.864V208.148L520.123 207.182H520.827ZM524.364 213.08C523.974 213.08 523.629 213.01 523.33 212.872C523.033 212.732 522.801 212.54 522.634 212.295C522.467 212.049 522.385 211.769 522.387 211.455C522.385 211.208 522.433 210.981 522.532 210.773C522.63 210.562 522.765 210.387 522.935 210.247C523.107 210.105 523.3 210.015 523.512 209.977V209.943C523.233 209.871 523.012 209.715 522.847 209.474C522.682 209.232 522.601 208.956 522.603 208.648C522.601 208.352 522.676 208.088 522.827 207.855C522.979 207.622 523.187 207.438 523.452 207.304C523.719 207.17 524.023 207.102 524.364 207.102C524.701 207.102 525.002 207.17 525.268 207.304C525.533 207.438 525.741 207.622 525.893 207.855C526.046 208.088 526.124 208.352 526.125 208.648C526.124 208.956 526.039 209.232 525.873 209.474C525.708 209.715 525.489 209.871 525.216 209.943V209.977C525.427 210.015 525.616 210.105 525.785 210.247C525.953 210.387 526.088 210.562 526.188 210.773C526.288 210.981 526.339 211.208 526.341 211.455C526.339 211.769 526.254 212.049 526.086 212.295C525.919 212.54 525.687 212.732 525.39 212.872C525.094 213.01 524.752 213.08 524.364 213.08ZM524.364 212.455C524.627 212.455 524.855 212.412 525.046 212.327C525.237 212.241 525.385 212.121 525.489 211.966C525.593 211.811 525.646 211.629 525.648 211.42C525.646 211.201 525.589 211.007 525.478 210.838C525.366 210.67 525.214 210.537 525.02 210.44C524.829 210.344 524.61 210.295 524.364 210.295C524.116 210.295 523.894 210.344 523.699 210.44C523.506 210.537 523.354 210.67 523.242 210.838C523.132 211.007 523.078 211.201 523.08 211.42C523.078 211.629 523.128 211.811 523.231 211.966C523.335 212.121 523.483 212.241 523.677 212.327C523.87 212.412 524.099 212.455 524.364 212.455ZM524.364 209.693C524.572 209.693 524.757 209.652 524.918 209.568C525.081 209.485 525.209 209.368 525.302 209.219C525.394 209.069 525.442 208.894 525.444 208.693C525.442 208.496 525.395 208.325 525.304 208.179C525.214 208.031 525.088 207.918 524.927 207.838C524.766 207.757 524.578 207.716 524.364 207.716C524.146 207.716 523.956 207.757 523.793 207.838C523.63 207.918 523.504 208.031 523.415 208.179C523.326 208.325 523.283 208.496 523.285 208.693C523.283 208.894 523.327 209.069 523.418 209.219C523.511 209.368 523.639 209.485 523.802 209.568C523.964 209.652 524.152 209.693 524.364 209.693Z" fill="#6E6E6E"/>
<line x1="23.5682" y1="164.5" x2="713.325" y2="164.5" stroke="#A1A1A1" stroke-dasharray="5 5"/>
<line x1="23.5682" y1="124.5" x2="713.325" y2="124.5" stroke="#A1A1A1" stroke-dasharray="5 5"/>
<line x1="23.5682" y1="84.5" x2="713.325" y2="84.5" stroke="#A1A1A1" stroke-dasharray="5 5"/>
<line x1="23.5682" y1="44.5" x2="713.325" y2="44.5" stroke="#A1A1A1" stroke-dasharray="5 5"/>
<line x1="23.5682" y1="4.5" x2="713.325" y2="4.5" stroke="#A1A1A1" stroke-dasharray="5 5"/>
<path d="M62.1493 45L24.061 203.5L713.338 204V78.5H679.55L643.919 119.5L625.489 102L593.544 103L574.5 137.5L540.097 145.5L517.367 133.5L506.923 145.5L474.364 119.5L454.091 144.5L403.716 144L377.3 47L360.099 128L311.567 169L282.693 129L217.575 115L196.073 75L155.527 177L125.425 106.5L110.067 118.5L82.4222 106.5L62.1493 45Z" fill="url(#paint0_linear_41_138)" stroke="#F3F4FB" stroke-linecap="round" stroke-linejoin="round"/>
<path d="M24.061 204L62.7292 45L82.984 106.5L110.604 118.5L125.949 106.5L156.024 177L196.534 75L218.016 115L283.077 129L311.925 169L360.413 128L377.599 47L403.992 144L454.322 144.5L474.577 119.5L507.107 145.5L517.541 133.5L540.251 145.5L574.623 137.5L593.65 103L625.567 102L643.98 119.5L679.58 78.5H713.338" stroke="#0A76E7" stroke-linecap="round" stroke-linejoin="round"/>
<line x1="23.5682" y1="204.5" x2="713.325" y2="204.5" stroke="#585858"/>
<circle cx="711.5" cy="78.5" r="2.5" fill="#0A76E7"/>
<defs>
<linearGradient id="paint0_linear_41_138" x1="370.235" y1="45" x2="370.235" y2="206" gradientUnits="userSpaceOnUse">
<stop stop-color="#A5D1FE"/>
<stop offset="0.458333" stop-color="#79B4F2" stop-opacity="0.546875"/>
<stop offset="1" stop-color="#E6F2FF" stop-opacity="0.43"/>
</linearGradient>
</defs>
</svg>
