<svg width="669" height="215" viewBox="0 0 669 215" fill="none" xmlns="http://www.w3.org/2000/svg">
<path d="M5.89201 168V167.489L7.81246 165.386C8.03784 165.14 8.22345 164.926 8.36928 164.744C8.51511 164.561 8.62307 164.388 8.69314 164.227C8.76511 164.064 8.8011 163.894 8.8011 163.716C8.8011 163.511 8.75186 163.334 8.65337 163.185C8.55678 163.035 8.4242 162.92 8.25564 162.838C8.08708 162.757 7.89769 162.716 7.68746 162.716C7.46398 162.716 7.2689 162.762 7.10223 162.855C6.93746 162.946 6.80962 163.074 6.71871 163.239C6.6297 163.403 6.58519 163.597 6.58519 163.818H5.91473C5.91473 163.477 5.99333 163.178 6.15053 162.92C6.30773 162.663 6.52174 162.462 6.79257 162.318C7.0653 162.174 7.37117 162.102 7.71019 162.102C8.0511 162.102 8.35318 162.174 8.61644 162.318C8.8797 162.462 9.08614 162.656 9.23576 162.901C9.38538 163.145 9.46019 163.417 9.46019 163.716C9.46019 163.93 9.42136 164.139 9.34371 164.344C9.26795 164.546 9.13538 164.773 8.94598 165.023C8.75848 165.271 8.49807 165.574 8.16473 165.932L6.85792 167.33V167.375H9.56246V168H5.89201ZM12.6335 168.08C12.2055 168.08 11.8409 167.963 11.5397 167.73C11.2386 167.495 11.0085 167.155 10.8494 166.71C10.6903 166.263 10.6108 165.723 10.6108 165.091C10.6108 164.462 10.6903 163.925 10.8494 163.48C11.0104 163.033 11.2414 162.692 11.5426 162.457C11.8456 162.221 12.2092 162.102 12.6335 162.102C13.0577 162.102 13.4204 162.221 13.7216 162.457C14.0246 162.692 14.2556 163.033 14.4147 163.48C14.5757 163.925 14.6562 164.462 14.6562 165.091C14.6562 165.723 14.5767 166.263 14.4176 166.71C14.2585 167.155 14.0284 167.495 13.7272 167.73C13.4261 167.963 13.0615 168.08 12.6335 168.08ZM12.6335 167.455C13.0577 167.455 13.3873 167.25 13.6221 166.841C13.857 166.432 13.9744 165.848 13.9744 165.091C13.9744 164.587 13.9204 164.158 13.8125 163.804C13.7064 163.45 13.553 163.18 13.3522 162.994C13.1534 162.809 12.9138 162.716 12.6335 162.716C12.213 162.716 11.8844 162.923 11.6477 163.338C11.4109 163.751 11.2926 164.335 11.2926 165.091C11.2926 165.595 11.3456 166.023 11.4517 166.375C11.5577 166.727 11.7102 166.995 11.9091 167.179C12.1098 167.363 12.3513 167.455 12.6335 167.455Z" fill="#6E6E6E"/>
<path d="M4.43319 126.807V126.227L6.99001 122.182H7.41047V123.08H7.12638L5.19456 126.136V126.182H8.63774V126.807H4.43319ZM7.17183 128V126.631V126.361V122.182H7.84229V128H7.17183ZM11.6001 128.08C11.1721 128.08 10.8075 127.963 10.5063 127.73C10.2052 127.495 9.9751 127.155 9.81601 126.71C9.65692 126.263 9.57737 125.723 9.57737 125.091C9.57737 124.462 9.65692 123.925 9.81601 123.48C9.97699 123.033 10.2081 122.692 10.5092 122.457C10.8122 122.221 11.1759 122.102 11.6001 122.102C12.0243 122.102 12.387 122.221 12.6882 122.457C12.9912 122.692 13.2223 123.033 13.3813 123.48C13.5423 123.925 13.6228 124.462 13.6228 125.091C13.6228 125.723 13.5433 126.263 13.3842 126.71C13.2251 127.155 12.995 127.495 12.6938 127.73C12.3927 127.963 12.0281 128.08 11.6001 128.08ZM11.6001 127.455C12.0243 127.455 12.3539 127.25 12.5887 126.841C12.8236 126.432 12.941 125.848 12.941 125.091C12.941 124.587 12.887 124.158 12.7791 123.804C12.673 123.45 12.5196 123.18 12.3188 122.994C12.12 122.809 11.8804 122.716 11.6001 122.716C11.1796 122.716 10.851 122.923 10.6143 123.338C10.3776 123.751 10.2592 124.335 10.2592 125.091C10.2592 125.595 10.3122 126.023 10.4183 126.375C10.5243 126.727 10.6768 126.995 10.8757 127.179C11.0764 127.363 11.3179 127.455 11.6001 127.455Z" fill="#6E6E6E"/>
<path d="M7.82382 88.0795C7.58519 88.0758 7.34655 88.0303 7.10792 87.9432C6.86928 87.8561 6.65148 87.7093 6.45451 87.5028C6.25754 87.2945 6.09939 87.0133 5.98007 86.6591C5.86076 86.303 5.8011 85.8561 5.8011 85.3182C5.8011 84.803 5.84939 84.3466 5.94598 83.9489C6.04257 83.5492 6.18273 83.2131 6.36644 82.9403C6.55015 82.6657 6.77174 82.4574 7.03121 82.3153C7.29257 82.1733 7.58708 82.1023 7.91473 82.1023C8.24049 82.1023 8.53026 82.1676 8.78405 82.2983C9.03973 82.4271 9.24807 82.607 9.40905 82.8381C9.57004 83.0691 9.6742 83.3352 9.72155 83.6364H9.02837C8.96398 83.375 8.83898 83.1581 8.65337 82.9858C8.46776 82.8134 8.22155 82.7273 7.91473 82.7273C7.46398 82.7273 7.10886 82.9233 6.84939 83.3153C6.59182 83.7074 6.46208 84.2576 6.46019 84.9659H6.50564C6.6117 84.8049 6.73765 84.6676 6.88348 84.554C7.03121 84.4384 7.19409 84.3494 7.37212 84.2869C7.55015 84.2244 7.7386 84.1932 7.93746 84.1932C8.27079 84.1932 8.57572 84.2765 8.85223 84.4432C9.12875 84.608 9.35034 84.8362 9.51701 85.1278C9.68367 85.4176 9.76701 85.75 9.76701 86.125C9.76701 86.4848 9.68651 86.8144 9.52553 87.1136C9.36454 87.411 9.13822 87.6477 8.84655 87.8239C8.55678 87.9981 8.21587 88.0833 7.82382 88.0795ZM7.82382 87.4545C8.06246 87.4545 8.27648 87.3949 8.46587 87.2756C8.65716 87.1562 8.80773 86.9962 8.91757 86.7955C9.02932 86.5947 9.08519 86.3712 9.08519 86.125C9.08519 85.8845 9.03121 85.6657 8.92326 85.4688C8.8172 85.2699 8.67042 85.1117 8.48292 84.9943C8.29731 84.8769 8.08519 84.8182 7.84655 84.8182C7.66663 84.8182 7.49901 84.8542 7.34371 84.9261C7.18841 84.9962 7.05204 85.0928 6.93462 85.2159C6.81909 85.339 6.72818 85.4801 6.66189 85.6392C6.59561 85.7964 6.56246 85.9621 6.56246 86.1364C6.56246 86.3674 6.61644 86.5833 6.72439 86.7841C6.83424 86.9848 6.98386 87.1468 7.17326 87.2699C7.36454 87.393 7.5814 87.4545 7.82382 87.4545ZM12.7819 88.0795C12.3539 88.0795 11.9893 87.9631 11.6882 87.7301C11.387 87.4953 11.1569 87.1553 10.9978 86.7102C10.8387 86.2633 10.7592 85.7235 10.7592 85.0909C10.7592 84.4621 10.8387 83.9252 10.9978 83.4801C11.1588 83.0331 11.3899 82.6922 11.691 82.4574C11.994 82.2206 12.3577 82.1023 12.7819 82.1023C13.2062 82.1023 13.5689 82.2206 13.87 82.4574C14.173 82.6922 14.4041 83.0331 14.5632 83.4801C14.7242 83.9252 14.8046 84.4621 14.8046 85.0909C14.8046 85.7235 14.7251 86.2633 14.566 86.7102C14.4069 87.1553 14.1768 87.4953 13.8757 87.7301C13.5745 87.9631 13.21 88.0795 12.7819 88.0795ZM12.7819 87.4545C13.2062 87.4545 13.5357 87.25 13.7706 86.8409C14.0054 86.4318 14.1228 85.8485 14.1228 85.0909C14.1228 84.5871 14.0689 84.1581 13.9609 83.804C13.8548 83.4498 13.7014 83.1799 13.5007 82.9943C13.3018 82.8087 13.0622 82.7159 12.7819 82.7159C12.3615 82.7159 12.0329 82.9233 11.7961 83.3381C11.5594 83.7509 11.441 84.3352 11.441 85.0909C11.441 85.5947 11.494 86.0227 11.6001 86.375C11.7062 86.7273 11.8586 86.9953 12.0575 87.179C12.2582 87.3627 12.4997 87.4545 12.7819 87.4545Z" fill="#6E6E6E"/>
<path d="M7.75564 48.0795C7.36549 48.0795 7.02079 48.0104 6.72155 47.8722C6.4242 47.732 6.1922 47.5398 6.02553 47.2955C5.85886 47.0492 5.77648 46.7689 5.77837 46.4545C5.77648 46.2083 5.82477 45.9811 5.92326 45.7727C6.02174 45.5625 6.15621 45.3873 6.32667 45.2472C6.49901 45.1051 6.69125 45.0152 6.90337 44.9773V44.9432C6.62496 44.8712 6.40337 44.715 6.2386 44.4744C6.07382 44.232 5.99239 43.9564 5.99428 43.6477C5.99239 43.3523 6.0672 43.0881 6.21871 42.8551C6.37023 42.6222 6.57856 42.4384 6.84371 42.304C7.11076 42.1695 7.41473 42.1023 7.75564 42.1023C8.09276 42.1023 8.3939 42.1695 8.65905 42.304C8.9242 42.4384 9.13254 42.6222 9.28405 42.8551C9.43746 43.0881 9.51511 43.3523 9.51701 43.6477C9.51511 43.9564 9.43083 44.232 9.26417 44.4744C9.09939 44.715 8.88064 44.8712 8.60792 44.9432V44.9773C8.81814 45.0152 9.00754 45.1051 9.1761 45.2472C9.34466 45.3873 9.47913 45.5625 9.57951 45.7727C9.67989 45.9811 9.73102 46.2083 9.73292 46.4545C9.73102 46.7689 9.64579 47.0492 9.47723 47.2955C9.31057 47.5398 9.07856 47.732 8.78121 47.8722C8.48576 48.0104 8.1439 48.0795 7.75564 48.0795ZM7.75564 47.4545C8.0189 47.4545 8.24617 47.4119 8.43746 47.3267C8.62875 47.2415 8.77648 47.1212 8.88064 46.9659C8.98481 46.8106 9.03784 46.6288 9.03973 46.4205C9.03784 46.2008 8.98102 46.0066 8.86928 45.8381C8.75754 45.6695 8.60507 45.5369 8.41189 45.4403C8.22061 45.3437 8.00186 45.2955 7.75564 45.2955C7.50754 45.2955 7.28595 45.3437 7.09087 45.4403C6.89769 45.5369 6.74523 45.6695 6.63348 45.8381C6.52364 46.0066 6.46966 46.2008 6.47155 46.4205C6.46966 46.6288 6.51985 46.8106 6.62212 46.9659C6.72629 47.1212 6.87496 47.2415 7.06814 47.3267C7.26132 47.4119 7.49049 47.4545 7.75564 47.4545ZM7.75564 44.6932C7.96398 44.6932 8.14864 44.6515 8.30962 44.5682C8.4725 44.4848 8.60034 44.3684 8.69314 44.2188C8.78595 44.0691 8.83329 43.8939 8.83519 43.6932C8.83329 43.4962 8.78689 43.3248 8.69598 43.179C8.60507 43.0312 8.47913 42.9176 8.31814 42.8381C8.15716 42.7566 7.96966 42.7159 7.75564 42.7159C7.53784 42.7159 7.3475 42.7566 7.18462 42.8381C7.02174 42.9176 6.89579 43.0312 6.80678 43.179C6.71776 43.3248 6.6742 43.4962 6.6761 43.6932C6.6742 43.8939 6.71871 44.0691 6.80962 44.2188C6.90242 44.3684 7.03026 44.4848 7.19314 44.5682C7.35602 44.6515 7.54352 44.6932 7.75564 44.6932ZM12.7194 48.0795C12.2914 48.0795 11.9268 47.9631 11.6257 47.7301C11.3245 47.4953 11.0944 47.1553 10.9353 46.7102C10.7762 46.2633 10.6967 45.7235 10.6967 45.0909C10.6967 44.4621 10.7762 43.9252 10.9353 43.4801C11.0963 43.0331 11.3274 42.6922 11.6285 42.4574C11.9315 42.2206 12.2952 42.1023 12.7194 42.1023C13.1437 42.1023 13.5064 42.2206 13.8075 42.4574C14.1105 42.6922 14.3416 43.0331 14.5007 43.4801C14.6617 43.9252 14.7421 44.4621 14.7421 45.0909C14.7421 45.7235 14.6626 46.2633 14.5035 46.7102C14.3444 47.1553 14.1143 47.4953 13.8132 47.7301C13.512 47.9631 13.1475 48.0795 12.7194 48.0795ZM12.7194 47.4545C13.1437 47.4545 13.4732 47.25 13.7081 46.8409C13.9429 46.4318 14.0603 45.8485 14.0603 45.0909C14.0603 44.5871 14.0064 44.1581 13.8984 43.804C13.7923 43.4498 13.6389 43.1799 13.4382 42.9943C13.2393 42.8087 12.9997 42.7159 12.7194 42.7159C12.299 42.7159 11.9704 42.9233 11.7336 43.3381C11.4969 43.7509 11.3785 44.3352 11.3785 45.0909C11.3785 45.5947 11.4315 46.0227 11.5376 46.375C11.6437 46.7273 11.7961 46.9953 11.995 47.179C12.1957 47.3627 12.4372 47.4545 12.7194 47.4545Z" fill="#6E6E6E"/>
<path d="M2.64773 2.18182V8H1.94318V2.92045H1.90909L0.488636 3.86364V3.14773L1.94318 2.18182H2.64773ZM6.21875 8.07955C5.79072 8.07955 5.42614 7.96307 5.125 7.73011C4.82386 7.49527 4.59375 7.1553 4.43466 6.71023C4.27557 6.26326 4.19602 5.72348 4.19602 5.09091C4.19602 4.46212 4.27557 3.92519 4.43466 3.48011C4.59564 3.03314 4.8267 2.69223 5.12784 2.45739C5.43087 2.22064 5.79451 2.10227 6.21875 2.10227C6.64299 2.10227 7.00568 2.22064 7.30682 2.45739C7.60985 2.69223 7.84091 3.03314 8 3.48011C8.16098 3.92519 8.24148 4.46212 8.24148 5.09091C8.24148 5.72348 8.16193 6.26326 8.00284 6.71023C7.84375 7.1553 7.61364 7.49527 7.3125 7.73011C7.01136 7.96307 6.64678 8.07955 6.21875 8.07955ZM6.21875 7.45455C6.64299 7.45455 6.97254 7.25 7.20739 6.84091C7.44223 6.43182 7.55966 5.84848 7.55966 5.09091C7.55966 4.58712 7.50568 4.15814 7.39773 3.80398C7.29167 3.44981 7.13826 3.17992 6.9375 2.99432C6.73864 2.80871 6.49905 2.71591 6.21875 2.71591C5.7983 2.71591 5.4697 2.9233 5.23295 3.33807C4.99621 3.75095 4.87784 4.33523 4.87784 5.09091C4.87784 5.5947 4.93087 6.02273 5.03693 6.375C5.14299 6.72727 5.29545 6.99527 5.49432 7.17898C5.69508 7.36269 5.93655 7.45455 6.21875 7.45455ZM11.2188 8.07955C10.7907 8.07955 10.4261 7.96307 10.125 7.73011C9.82386 7.49527 9.59375 7.1553 9.43466 6.71023C9.27557 6.26326 9.19602 5.72348 9.19602 5.09091C9.19602 4.46212 9.27557 3.92519 9.43466 3.48011C9.59564 3.03314 9.8267 2.69223 10.1278 2.45739C10.4309 2.22064 10.7945 2.10227 11.2188 2.10227C11.643 2.10227 12.0057 2.22064 12.3068 2.45739C12.6098 2.69223 12.8409 3.03314 13 3.48011C13.161 3.92519 13.2415 4.46212 13.2415 5.09091C13.2415 5.72348 13.1619 6.26326 13.0028 6.71023C12.8438 7.1553 12.6136 7.49527 12.3125 7.73011C12.0114 7.96307 11.6468 8.07955 11.2188 8.07955ZM11.2188 7.45455C11.643 7.45455 11.9725 7.25 12.2074 6.84091C12.4422 6.43182 12.5597 5.84848 12.5597 5.09091C12.5597 4.58712 12.5057 4.15814 12.3977 3.80398C12.2917 3.44981 12.1383 3.17992 11.9375 2.99432C11.7386 2.80871 11.4991 2.71591 11.2188 2.71591C10.7983 2.71591 10.4697 2.9233 10.233 3.33807C9.99621 3.75095 9.87784 4.33523 9.87784 5.09091C9.87784 5.5947 9.93087 6.02273 10.0369 6.375C10.143 6.72727 10.2955 6.99527 10.4943 7.17898C10.6951 7.36269 10.9366 7.45455 11.2188 7.45455Z" fill="#6E6E6E"/>
<path d="M25.1293 207.182V213H24.4247V207.92H24.3907L22.9702 208.864V208.148L24.4247 207.182H25.1293Z" fill="#6E6E6E"/>
<path d="M582.206 213V212.489L584.126 210.386C584.352 210.14 584.537 209.926 584.683 209.744C584.829 209.561 584.937 209.388 585.007 209.227C585.079 209.064 585.115 208.894 585.115 208.716C585.115 208.511 585.066 208.334 584.967 208.185C584.871 208.035 584.738 207.92 584.57 207.838C584.401 207.757 584.212 207.716 584.001 207.716C583.778 207.716 583.583 207.762 583.416 207.855C583.251 207.946 583.124 208.074 583.033 208.239C582.944 208.403 582.899 208.597 582.899 208.818H582.229C582.229 208.477 582.307 208.178 582.465 207.92C582.622 207.663 582.836 207.462 583.107 207.318C583.379 207.174 583.685 207.102 584.024 207.102C584.365 207.102 584.667 207.174 584.93 207.318C585.194 207.462 585.4 207.656 585.55 207.901C585.699 208.145 585.774 208.417 585.774 208.716C585.774 208.93 585.735 209.139 585.658 209.344C585.582 209.546 585.449 209.773 585.26 210.023C585.073 210.271 584.812 210.574 584.479 210.932L583.172 212.33V212.375H585.876V213H582.206ZM589.095 207.182V213H588.391V207.92H588.357L586.936 208.864V208.148L588.391 207.182H589.095Z" fill="#6E6E6E"/>
<path d="M266.693 207.182V213H265.988V207.92H265.954L264.534 208.864V208.148L265.988 207.182H266.693ZM270.411 207.182V213H269.707V207.92H269.673L268.252 208.864V208.148L269.707 207.182H270.411Z" fill="#6E6E6E"/>
<path d="M211.673 207.102C211.912 207.104 212.15 207.15 212.389 207.239C212.627 207.328 212.845 207.475 213.042 207.682C213.239 207.886 213.397 208.166 213.517 208.52C213.636 208.874 213.696 209.318 213.696 209.852C213.696 210.369 213.646 210.829 213.548 211.23C213.451 211.63 213.311 211.967 213.127 212.241C212.946 212.516 212.724 212.724 212.463 212.866C212.203 213.009 211.91 213.08 211.582 213.08C211.256 213.08 210.966 213.015 210.71 212.886C210.456 212.756 210.248 212.575 210.085 212.344C209.924 212.111 209.821 211.841 209.775 211.534H210.468C210.531 211.801 210.655 212.022 210.841 212.196C211.028 212.368 211.275 212.455 211.582 212.455C212.031 212.455 212.385 212.259 212.645 211.866C212.906 211.474 213.037 210.92 213.037 210.205H212.991C212.885 210.364 212.759 210.501 212.613 210.616C212.467 210.732 212.306 210.821 212.127 210.884C211.949 210.946 211.76 210.977 211.559 210.977C211.226 210.977 210.92 210.895 210.642 210.73C210.365 210.563 210.144 210.335 209.977 210.045C209.812 209.754 209.73 209.42 209.73 209.045C209.73 208.689 209.809 208.364 209.968 208.068C210.129 207.771 210.355 207.534 210.645 207.358C210.936 207.182 211.279 207.097 211.673 207.102ZM211.673 207.727C211.434 207.727 211.219 207.787 211.028 207.906C210.839 208.024 210.688 208.183 210.576 208.384C210.466 208.582 210.412 208.803 210.412 209.045C210.412 209.288 210.465 209.509 210.571 209.707C210.679 209.904 210.825 210.062 211.011 210.179C211.198 210.295 211.412 210.352 211.65 210.352C211.83 210.352 211.998 210.317 212.153 210.247C212.308 210.175 212.444 210.078 212.559 209.955C212.677 209.83 212.769 209.688 212.835 209.531C212.901 209.372 212.934 209.206 212.934 209.034C212.934 208.807 212.879 208.594 212.77 208.395C212.662 208.196 212.512 208.035 212.321 207.912C212.131 207.789 211.915 207.727 211.673 207.727Z" fill="#6E6E6E"/>
<path d="M518.569 207.182V213H517.864V207.92H517.83L516.409 208.864V208.148L517.864 207.182H518.569ZM522.094 207.102C522.333 207.104 522.571 207.15 522.81 207.239C523.049 207.328 523.266 207.475 523.463 207.682C523.66 207.886 523.819 208.166 523.938 208.52C524.057 208.874 524.117 209.318 524.117 209.852C524.117 210.369 524.068 210.829 523.969 211.23C523.872 211.63 523.732 211.967 523.549 212.241C523.367 212.516 523.145 212.724 522.884 212.866C522.624 213.009 522.331 213.08 522.003 213.08C521.677 213.08 521.387 213.015 521.131 212.886C520.877 212.756 520.669 212.575 520.506 212.344C520.345 212.111 520.242 211.841 520.196 211.534H520.89C520.952 211.801 521.076 212.022 521.262 212.196C521.449 212.368 521.696 212.455 522.003 212.455C522.452 212.455 522.806 212.259 523.066 211.866C523.327 211.474 523.458 210.92 523.458 210.205H523.412C523.306 210.364 523.18 210.501 523.034 210.616C522.889 210.732 522.727 210.821 522.549 210.884C522.371 210.946 522.181 210.977 521.98 210.977C521.647 210.977 521.341 210.895 521.063 210.73C520.786 210.563 520.565 210.335 520.398 210.045C520.233 209.754 520.151 209.42 520.151 209.045C520.151 208.689 520.23 208.364 520.39 208.068C520.551 207.771 520.776 207.534 521.066 207.358C521.357 207.182 521.7 207.097 522.094 207.102ZM522.094 207.727C521.855 207.727 521.64 207.787 521.449 207.906C521.26 208.024 521.109 208.183 520.997 208.384C520.888 208.582 520.833 208.803 520.833 209.045C520.833 209.288 520.886 209.509 520.992 209.707C521.1 209.904 521.247 210.062 521.432 210.179C521.62 210.295 521.833 210.352 522.071 210.352C522.251 210.352 522.419 210.317 522.574 210.247C522.729 210.175 522.865 210.078 522.98 209.955C523.098 209.83 523.19 209.688 523.256 209.531C523.322 209.372 523.355 209.206 523.355 209.034C523.355 208.807 523.301 208.594 523.191 208.395C523.083 208.196 522.933 208.035 522.742 207.912C522.552 207.789 522.336 207.727 522.094 207.727Z" fill="#6E6E6E"/>
<path d="M119.356 213.08C119.023 213.08 118.723 213.013 118.456 212.881C118.189 212.748 117.975 212.566 117.814 212.335C117.653 212.104 117.565 211.841 117.549 211.545H118.231C118.258 211.809 118.377 212.027 118.589 212.199C118.803 212.369 119.059 212.455 119.356 212.455C119.595 212.455 119.807 212.399 119.993 212.287C120.18 212.175 120.327 212.022 120.433 211.827C120.541 211.63 120.595 211.407 120.595 211.159C120.595 210.905 120.539 210.679 120.427 210.48C120.317 210.279 120.166 210.121 119.973 210.006C119.78 209.89 119.559 209.831 119.311 209.83C119.133 209.828 118.95 209.855 118.762 209.912C118.575 209.967 118.421 210.038 118.299 210.125L117.64 210.045L117.993 207.182H121.015V207.807H118.584L118.379 209.523H118.413C118.532 209.428 118.682 209.349 118.862 209.287C119.042 209.224 119.229 209.193 119.424 209.193C119.78 209.193 120.098 209.278 120.376 209.449C120.656 209.617 120.876 209.848 121.035 210.142C121.196 210.436 121.277 210.771 121.277 211.148C121.277 211.519 121.193 211.85 121.027 212.142C120.862 212.432 120.635 212.661 120.345 212.83C120.055 212.996 119.726 213.08 119.356 213.08Z" fill="#6E6E6E"/>
<path d="M391.545 207.182V213H390.84V207.92H390.806L389.386 208.864V208.148L390.84 207.182H391.545ZM395.036 213.08C394.703 213.08 394.403 213.013 394.136 212.881C393.869 212.748 393.655 212.566 393.494 212.335C393.333 212.104 393.245 211.841 393.229 211.545H393.911C393.938 211.809 394.057 212.027 394.269 212.199C394.483 212.369 394.739 212.455 395.036 212.455C395.275 212.455 395.487 212.399 395.673 212.287C395.86 212.175 396.007 212.022 396.113 211.827C396.221 211.63 396.275 211.407 396.275 211.159C396.275 210.905 396.219 210.679 396.107 210.48C395.997 210.279 395.846 210.121 395.653 210.006C395.46 209.89 395.239 209.831 394.991 209.83C394.813 209.828 394.63 209.855 394.443 209.912C394.255 209.967 394.101 210.038 393.979 210.125L393.32 210.045L393.673 207.182H396.695V207.807H394.264L394.059 209.523H394.093C394.212 209.428 394.362 209.349 394.542 209.287C394.722 209.224 394.909 209.193 395.104 209.193C395.461 209.193 395.778 209.278 396.056 209.449C396.336 209.617 396.556 209.848 396.715 210.142C396.876 210.436 396.957 210.771 396.957 211.148C396.957 211.519 396.873 211.85 396.707 212.142C396.542 212.432 396.315 212.661 396.025 212.83C395.735 212.996 395.406 213.08 395.036 213.08Z" fill="#6E6E6E"/>
<path d="M69.0198 213.08C68.6448 213.08 68.3105 213.015 68.0169 212.886C67.7253 212.758 67.4933 212.579 67.3209 212.349C67.1505 212.118 67.0577 211.85 67.0425 211.545H67.7584C67.7736 211.733 67.838 211.895 67.9516 212.031C68.0652 212.166 68.2139 212.27 68.3976 212.344C68.5813 212.418 68.7849 212.455 69.0084 212.455C69.2584 212.455 69.48 212.411 69.6732 212.324C69.8664 212.237 70.0179 212.116 70.1277 211.96C70.2376 211.805 70.2925 211.625 70.2925 211.42C70.2925 211.206 70.2395 211.018 70.1334 210.855C70.0274 210.69 69.8721 210.562 69.6675 210.469C69.463 210.376 69.213 210.33 68.9175 210.33H68.4516V209.705H68.9175C69.1486 209.705 69.3512 209.663 69.5255 209.58C69.7016 209.496 69.8389 209.379 69.9374 209.227C70.0378 209.076 70.088 208.898 70.088 208.693C70.088 208.496 70.0444 208.325 69.9573 208.179C69.8702 208.033 69.7471 207.92 69.588 207.838C69.4308 207.757 69.2452 207.716 69.0311 207.716C68.8304 207.716 68.641 207.753 68.463 207.827C68.2868 207.899 68.1429 208.004 68.0311 208.142C67.9194 208.278 67.8588 208.443 67.8493 208.636H67.1675C67.1789 208.331 67.2707 208.064 67.4431 207.835C67.6154 207.604 67.8408 207.424 68.1192 207.295C68.3995 207.167 68.7073 207.102 69.0425 207.102C69.4024 207.102 69.7111 207.175 69.9686 207.321C70.2262 207.465 70.4241 207.655 70.5624 207.892C70.7007 208.129 70.7698 208.384 70.7698 208.659C70.7698 208.987 70.6836 209.266 70.5113 209.497C70.3408 209.728 70.1088 209.888 69.8152 209.977V210.023C70.1827 210.083 70.4696 210.24 70.676 210.491C70.8825 210.741 70.9857 211.051 70.9857 211.42C70.9857 211.737 70.8995 212.021 70.7272 212.273C70.5567 212.523 70.3238 212.72 70.0283 212.864C69.7328 213.008 69.3967 213.08 69.0198 213.08Z" fill="#6E6E6E"/>
<path d="M647.889 213V212.489L649.81 210.386C650.035 210.14 650.221 209.926 650.366 209.744C650.512 209.561 650.62 209.388 650.69 209.227C650.762 209.064 650.798 208.894 650.798 208.716C650.798 208.511 650.749 208.334 650.651 208.185C650.554 208.035 650.421 207.92 650.253 207.838C650.084 207.757 649.895 207.716 649.685 207.716C649.461 207.716 649.266 207.762 649.099 207.855C648.935 207.946 648.807 208.074 648.716 208.239C648.627 208.403 648.582 208.597 648.582 208.818H647.912C647.912 208.477 647.99 208.178 648.148 207.92C648.305 207.663 648.519 207.462 648.79 207.318C649.062 207.174 649.368 207.102 649.707 207.102C650.048 207.102 650.35 207.174 650.614 207.318C650.877 207.462 651.083 207.656 651.233 207.901C651.383 208.145 651.457 208.417 651.457 208.716C651.457 208.93 651.418 209.139 651.341 209.344C651.265 209.546 651.133 209.773 650.943 210.023C650.756 210.271 650.495 210.574 650.162 210.932L648.855 212.33V212.375H651.56V213H647.889ZM654.699 213.08C654.324 213.08 653.99 213.015 653.696 212.886C653.404 212.758 653.172 212.579 653 212.349C652.829 212.118 652.737 211.85 652.722 211.545H653.437C653.453 211.733 653.517 211.895 653.631 212.031C653.744 212.166 653.893 212.27 654.077 212.344C654.26 212.418 654.464 212.455 654.687 212.455C654.937 212.455 655.159 212.411 655.352 212.324C655.545 212.237 655.697 212.116 655.807 211.96C655.917 211.805 655.972 211.625 655.972 211.42C655.972 211.206 655.918 211.018 655.812 210.855C655.706 210.69 655.551 210.562 655.347 210.469C655.142 210.376 654.892 210.33 654.597 210.33H654.131V209.705H654.597C654.828 209.705 655.03 209.663 655.204 209.58C655.381 209.496 655.518 209.379 655.616 209.227C655.717 209.076 655.767 208.898 655.767 208.693C655.767 208.496 655.723 208.325 655.636 208.179C655.549 208.033 655.426 207.92 655.267 207.838C655.11 207.757 654.924 207.716 654.71 207.716C654.509 207.716 654.32 207.753 654.142 207.827C653.966 207.899 653.822 208.004 653.71 208.142C653.598 208.278 653.538 208.443 653.528 208.636H652.847C652.858 208.331 652.95 208.064 653.122 207.835C653.294 207.604 653.52 207.424 653.798 207.295C654.079 207.167 654.386 207.102 654.722 207.102C655.081 207.102 655.39 207.175 655.648 207.321C655.905 207.465 656.103 207.655 656.241 207.892C656.38 208.129 656.449 208.384 656.449 208.659C656.449 208.987 656.363 209.266 656.19 209.497C656.02 209.728 655.788 209.888 655.494 209.977V210.023C655.862 210.083 656.149 210.24 656.355 210.491C656.561 210.741 656.665 211.051 656.665 211.42C656.665 211.737 656.579 212.021 656.406 212.273C656.236 212.523 656.003 212.72 655.707 212.864C655.412 213.008 655.076 213.08 654.699 213.08Z" fill="#6E6E6E"/>
<path d="M328.033 207.182V213H327.328V207.92H327.294L325.874 208.864V208.148L327.328 207.182H328.033ZM331.672 213.08C331.297 213.08 330.963 213.015 330.669 212.886C330.378 212.758 330.146 212.579 329.973 212.349C329.803 212.118 329.71 211.85 329.695 211.545H330.411C330.426 211.733 330.49 211.895 330.604 212.031C330.718 212.166 330.866 212.27 331.05 212.344C331.234 212.418 331.437 212.455 331.661 212.455C331.911 212.455 332.132 212.411 332.326 212.324C332.519 212.237 332.67 212.116 332.78 211.96C332.89 211.805 332.945 211.625 332.945 211.42C332.945 211.206 332.892 211.018 332.786 210.855C332.68 210.69 332.524 210.562 332.32 210.469C332.115 210.376 331.865 210.33 331.57 210.33H331.104V209.705H331.57C331.801 209.705 332.004 209.663 332.178 209.58C332.354 209.496 332.491 209.379 332.59 209.227C332.69 209.076 332.74 208.898 332.74 208.693C332.74 208.496 332.697 208.325 332.61 208.179C332.523 208.033 332.399 207.92 332.24 207.838C332.083 207.757 331.898 207.716 331.684 207.716C331.483 207.716 331.293 207.753 331.115 207.827C330.939 207.899 330.795 208.004 330.684 208.142C330.572 208.278 330.511 208.443 330.502 208.636H329.82C329.831 208.331 329.923 208.064 330.095 207.835C330.268 207.604 330.493 207.424 330.772 207.295C331.052 207.167 331.36 207.102 331.695 207.102C332.055 207.102 332.363 207.175 332.621 207.321C332.879 207.465 333.077 207.655 333.215 207.892C333.353 208.129 333.422 208.384 333.422 208.659C333.422 208.987 333.336 209.266 333.164 209.497C332.993 209.728 332.761 209.888 332.468 209.977V210.023C332.835 210.083 333.122 210.24 333.328 210.491C333.535 210.741 333.638 211.051 333.638 211.42C333.638 211.737 333.552 212.021 333.38 212.273C333.209 212.523 332.976 212.72 332.681 212.864C332.385 213.008 332.049 213.08 331.672 213.08Z" fill="#6E6E6E"/>
<path d="M163.861 213L166.463 207.852V207.807H163.463V207.182H167.191V207.841L164.6 213H163.861Z" fill="#6E6E6E"/>
<path d="M455.057 207.182V213H454.352V207.92H454.318L452.898 208.864V208.148L454.352 207.182H455.057ZM456.912 213L459.514 207.852V207.807H456.514V207.182H460.241V207.841L457.651 213H456.912Z" fill="#6E6E6E"/>
<path d="M43.9832 213V212.489L45.9036 210.386C46.129 210.14 46.3146 209.926 46.4605 209.744C46.6063 209.561 46.7143 209.388 46.7843 209.227C46.8563 209.064 46.8923 208.894 46.8923 208.716C46.8923 208.511 46.843 208.334 46.7446 208.185C46.648 208.035 46.5154 207.92 46.3468 207.838C46.1783 207.757 45.9889 207.716 45.7786 207.716C45.5552 207.716 45.3601 207.762 45.1934 207.855C45.0286 207.946 44.9008 208.074 44.8099 208.239C44.7209 208.403 44.6764 208.597 44.6764 208.818H44.0059C44.0059 208.477 44.0845 208.178 44.2417 207.92C44.3989 207.663 44.6129 207.462 44.8838 207.318C45.1565 207.174 45.4624 207.102 45.8014 207.102C46.1423 207.102 46.4444 207.174 46.7076 207.318C46.9709 207.462 47.1773 207.656 47.3269 207.901C47.4766 208.145 47.5514 208.417 47.5514 208.716C47.5514 208.93 47.5125 209.139 47.4349 209.344C47.3591 209.546 47.2266 209.773 47.0372 210.023C46.8497 210.271 46.5893 210.574 46.2559 210.932L44.9491 212.33V212.375H47.6536V213H43.9832Z" fill="#6E6E6E"/>
<path d="M613.962 213V212.489L615.882 210.386C616.108 210.14 616.293 209.926 616.439 209.744C616.585 209.561 616.693 209.388 616.763 209.227C616.835 209.064 616.871 208.894 616.871 208.716C616.871 208.511 616.822 208.334 616.723 208.185C616.627 208.035 616.494 207.92 616.326 207.838C616.157 207.757 615.968 207.716 615.757 207.716C615.534 207.716 615.339 207.762 615.172 207.855C615.007 207.946 614.88 208.074 614.789 208.239C614.7 208.403 614.655 208.597 614.655 208.818H613.985C613.985 208.477 614.063 208.178 614.221 207.92C614.378 207.663 614.592 207.462 614.863 207.318C615.135 207.174 615.441 207.102 615.78 207.102C616.121 207.102 616.423 207.174 616.686 207.318C616.95 207.462 617.156 207.656 617.306 207.901C617.455 208.145 617.53 208.417 617.53 208.716C617.53 208.93 617.491 209.139 617.414 209.344C617.338 209.546 617.205 209.773 617.016 210.023C616.828 210.271 616.568 210.574 616.235 210.932L614.928 212.33V212.375H617.632V213H613.962ZM618.806 213V212.489L620.726 210.386C620.952 210.14 621.137 209.926 621.283 209.744C621.429 209.561 621.537 209.388 621.607 209.227C621.679 209.064 621.715 208.894 621.715 208.716C621.715 208.511 621.666 208.334 621.567 208.185C621.471 208.035 621.338 207.92 621.169 207.838C621.001 207.757 620.811 207.716 620.601 207.716C620.378 207.716 620.183 207.762 620.016 207.855C619.851 207.946 619.723 208.074 619.632 208.239C619.543 208.403 619.499 208.597 619.499 208.818H618.828C618.828 208.477 618.907 208.178 619.064 207.92C619.221 207.663 619.435 207.462 619.706 207.318C619.979 207.174 620.285 207.102 620.624 207.102C620.965 207.102 621.267 207.174 621.53 207.318C621.793 207.462 622 207.656 622.15 207.901C622.299 208.145 622.374 208.417 622.374 208.716C622.374 208.93 622.335 209.139 622.257 209.344C622.182 209.546 622.049 209.773 621.86 210.023C621.672 210.271 621.412 210.574 621.078 210.932L619.772 212.33V212.375H622.476V213H618.806Z" fill="#6E6E6E"/>
<path d="M296.277 207.182V213H295.573V207.92H295.539L294.118 208.864V208.148L295.573 207.182H296.277ZM297.951 213V212.489L299.871 210.386C300.096 210.14 300.282 209.926 300.428 209.744C300.574 209.561 300.682 209.388 300.752 209.227C300.824 209.064 300.86 208.894 300.86 208.716C300.86 208.511 300.811 208.334 300.712 208.185C300.615 208.035 300.483 207.92 300.314 207.838C300.146 207.757 299.956 207.716 299.746 207.716C299.523 207.716 299.328 207.762 299.161 207.855C298.996 207.946 298.868 208.074 298.777 208.239C298.688 208.403 298.644 208.597 298.644 208.818H297.973C297.973 208.477 298.052 208.178 298.209 207.92C298.366 207.663 298.58 207.462 298.851 207.318C299.124 207.174 299.43 207.102 299.769 207.102C300.11 207.102 300.412 207.174 300.675 207.318C300.938 207.462 301.145 207.656 301.294 207.901C301.444 208.145 301.519 208.417 301.519 208.716C301.519 208.93 301.48 209.139 301.402 209.344C301.327 209.546 301.194 209.773 301.005 210.023C300.817 210.271 300.557 210.574 300.223 210.932L298.917 212.33V212.375H301.621V213H297.951Z" fill="#6E6E6E"/>
<path d="M234.937 207.182V213H234.232V207.92H234.198L232.777 208.864V208.148L234.232 207.182H234.937ZM238.508 213.08C238.08 213.08 237.715 212.963 237.414 212.73C237.113 212.495 236.883 212.155 236.723 211.71C236.564 211.263 236.485 210.723 236.485 210.091C236.485 209.462 236.564 208.925 236.723 208.48C236.884 208.033 237.116 207.692 237.417 207.457C237.72 207.221 238.083 207.102 238.508 207.102C238.932 207.102 239.295 207.221 239.596 207.457C239.899 207.692 240.13 208.033 240.289 208.48C240.45 208.925 240.53 209.462 240.53 210.091C240.53 210.723 240.451 211.263 240.292 211.71C240.133 212.155 239.902 212.495 239.601 212.73C239.3 212.963 238.936 213.08 238.508 213.08ZM238.508 212.455C238.932 212.455 239.261 212.25 239.496 211.841C239.731 211.432 239.848 210.848 239.848 210.091C239.848 209.587 239.795 209.158 239.687 208.804C239.58 208.45 239.427 208.18 239.226 207.994C239.027 207.809 238.788 207.716 238.508 207.716C238.087 207.716 237.759 207.923 237.522 208.338C237.285 208.751 237.167 209.335 237.167 210.091C237.167 210.595 237.22 211.023 237.326 211.375C237.432 211.727 237.584 211.995 237.783 212.179C237.984 212.363 238.225 212.455 238.508 212.455Z" fill="#6E6E6E"/>
<path d="M548.279 213V212.489L550.2 210.386C550.425 210.14 550.611 209.926 550.756 209.744C550.902 209.561 551.01 209.388 551.08 209.227C551.152 209.064 551.188 208.894 551.188 208.716C551.188 208.511 551.139 208.334 551.041 208.185C550.944 208.035 550.811 207.92 550.643 207.838C550.474 207.757 550.285 207.716 550.075 207.716C549.851 207.716 549.656 207.762 549.489 207.855C549.325 207.946 549.197 208.074 549.106 208.239C549.017 208.403 548.972 208.597 548.972 208.818H548.302C548.302 208.477 548.38 208.178 548.538 207.92C548.695 207.663 548.909 207.462 549.18 207.318C549.452 207.174 549.758 207.102 550.097 207.102C550.438 207.102 550.74 207.174 551.004 207.318C551.267 207.462 551.473 207.656 551.623 207.901C551.773 208.145 551.847 208.417 551.847 208.716C551.847 208.93 551.809 209.139 551.731 209.344C551.655 209.546 551.523 209.773 551.333 210.023C551.146 210.271 550.885 210.574 550.552 210.932L549.245 212.33V212.375H551.95V213H548.279ZM555.021 213.08C554.593 213.08 554.228 212.963 553.927 212.73C553.626 212.495 553.396 212.155 553.237 211.71C553.077 211.263 552.998 210.723 552.998 210.091C552.998 209.462 553.077 208.925 553.237 208.48C553.398 208.033 553.629 207.692 553.93 207.457C554.233 207.221 554.596 207.102 555.021 207.102C555.445 207.102 555.808 207.221 556.109 207.457C556.412 207.692 556.643 208.033 556.802 208.48C556.963 208.925 557.043 209.462 557.043 210.091C557.043 210.723 556.964 211.263 556.805 211.71C556.646 212.155 556.416 212.495 556.114 212.73C555.813 212.963 555.449 213.08 555.021 213.08ZM555.021 212.455C555.445 212.455 555.774 212.25 556.009 211.841C556.244 211.432 556.362 210.848 556.362 210.091C556.362 209.587 556.308 209.158 556.2 208.804C556.094 208.45 555.94 208.18 555.739 207.994C555.541 207.809 555.301 207.716 555.021 207.716C554.6 207.716 554.272 207.923 554.035 208.338C553.798 208.751 553.68 209.335 553.68 210.091C553.68 210.595 553.733 211.023 553.839 211.375C553.945 211.727 554.097 211.995 554.296 212.179C554.497 212.363 554.738 212.455 555.021 212.455Z" fill="#6E6E6E"/>
<path d="M142.54 213.08C142.302 213.076 142.063 213.03 141.824 212.943C141.586 212.856 141.368 212.709 141.171 212.503C140.974 212.295 140.816 212.013 140.697 211.659C140.577 211.303 140.518 210.856 140.518 210.318C140.518 209.803 140.566 209.347 140.662 208.949C140.759 208.549 140.899 208.213 141.083 207.94C141.267 207.666 141.488 207.457 141.748 207.315C142.009 207.173 142.304 207.102 142.631 207.102C142.957 207.102 143.247 207.168 143.501 207.298C143.756 207.427 143.965 207.607 144.126 207.838C144.287 208.069 144.391 208.335 144.438 208.636H143.745C143.68 208.375 143.555 208.158 143.37 207.986C143.184 207.813 142.938 207.727 142.631 207.727C142.18 207.727 141.825 207.923 141.566 208.315C141.308 208.707 141.179 209.258 141.177 209.966H141.222C141.328 209.805 141.454 209.668 141.6 209.554C141.748 209.438 141.911 209.349 142.089 209.287C142.267 209.224 142.455 209.193 142.654 209.193C142.987 209.193 143.292 209.277 143.569 209.443C143.845 209.608 144.067 209.836 144.233 210.128C144.4 210.418 144.483 210.75 144.483 211.125C144.483 211.485 144.403 211.814 144.242 212.114C144.081 212.411 143.855 212.648 143.563 212.824C143.273 212.998 142.932 213.083 142.54 213.08ZM142.54 212.455C142.779 212.455 142.993 212.395 143.182 212.276C143.374 212.156 143.524 211.996 143.634 211.795C143.746 211.595 143.802 211.371 143.802 211.125C143.802 210.884 143.748 210.666 143.64 210.469C143.534 210.27 143.387 210.112 143.199 209.994C143.014 209.877 142.802 209.818 142.563 209.818C142.383 209.818 142.216 209.854 142.06 209.926C141.905 209.996 141.769 210.093 141.651 210.216C141.536 210.339 141.445 210.48 141.378 210.639C141.312 210.796 141.279 210.962 141.279 211.136C141.279 211.367 141.333 211.583 141.441 211.784C141.551 211.985 141.7 212.147 141.89 212.27C142.081 212.393 142.298 212.455 142.54 212.455Z" fill="#6E6E6E"/>
<path d="M423.301 207.182V213H422.596V207.92H422.562L421.142 208.864V208.148L422.596 207.182H423.301ZM426.906 213.08C426.667 213.076 426.429 213.03 426.19 212.943C425.951 212.856 425.734 212.709 425.537 212.503C425.34 212.295 425.182 212.013 425.062 211.659C424.943 211.303 424.883 210.856 424.883 210.318C424.883 209.803 424.932 209.347 425.028 208.949C425.125 208.549 425.265 208.213 425.449 207.94C425.632 207.666 425.854 207.457 426.113 207.315C426.375 207.173 426.669 207.102 426.997 207.102C427.323 207.102 427.612 207.168 427.866 207.298C428.122 207.427 428.33 207.607 428.491 207.838C428.652 208.069 428.756 208.335 428.804 208.636H428.111C428.046 208.375 427.921 208.158 427.736 207.986C427.55 207.813 427.304 207.727 426.997 207.727C426.546 207.727 426.191 207.923 425.932 208.315C425.674 208.707 425.544 209.258 425.542 209.966H425.588C425.694 209.805 425.82 209.668 425.966 209.554C426.113 209.438 426.276 209.349 426.454 209.287C426.632 209.224 426.821 209.193 427.02 209.193C427.353 209.193 427.658 209.277 427.934 209.443C428.211 209.608 428.433 209.836 428.599 210.128C428.766 210.418 428.849 210.75 428.849 211.125C428.849 211.485 428.769 211.814 428.608 212.114C428.447 212.411 428.22 212.648 427.929 212.824C427.639 212.998 427.298 213.083 426.906 213.08ZM426.906 212.455C427.145 212.455 427.359 212.395 427.548 212.276C427.739 212.156 427.89 211.996 428 211.795C428.112 211.595 428.167 211.371 428.167 211.125C428.167 210.884 428.113 210.666 428.005 210.469C427.899 210.27 427.753 210.112 427.565 209.994C427.38 209.877 427.167 209.818 426.929 209.818C426.749 209.818 426.581 209.854 426.426 209.926C426.271 209.996 426.134 210.093 426.017 210.216C425.901 210.339 425.81 210.48 425.744 210.639C425.678 210.796 425.645 210.962 425.645 211.136C425.645 211.367 425.699 211.583 425.807 211.784C425.916 211.985 426.066 212.147 426.255 212.27C426.447 212.393 426.664 212.455 426.906 212.455Z" fill="#6E6E6E"/>
<path d="M92.1595 211.807V211.227L94.7163 207.182H95.1368V208.08H94.8527L92.9209 211.136V211.182H96.3641V211.807H92.1595ZM94.8981 213V211.631V211.361V207.182H95.5686V213H94.8981Z" fill="#6E6E6E"/>
<path d="M359.789 207.182V213H359.085V207.92H359.05L357.63 208.864V208.148L359.085 207.182H359.789ZM361.326 211.807V211.227L363.883 207.182H364.303V208.08H364.019L362.087 211.136V211.182H365.531V211.807H361.326ZM364.065 213V211.631V211.361V207.182H364.735V213H364.065Z" fill="#6E6E6E"/>
<path d="M188.613 213.08C188.223 213.08 187.879 213.01 187.579 212.872C187.282 212.732 187.05 212.54 186.883 212.295C186.717 212.049 186.634 211.769 186.636 211.455C186.634 211.208 186.683 210.981 186.781 210.773C186.88 210.562 187.014 210.387 187.185 210.247C187.357 210.105 187.549 210.015 187.761 209.977V209.943C187.483 209.871 187.261 209.715 187.096 209.474C186.932 209.232 186.85 208.956 186.852 208.648C186.85 208.352 186.925 208.088 187.077 207.855C187.228 207.622 187.436 207.438 187.702 207.304C187.969 207.17 188.273 207.102 188.613 207.102C188.951 207.102 189.252 207.17 189.517 207.304C189.782 207.438 189.99 207.622 190.142 207.855C190.295 208.088 190.373 208.352 190.375 208.648C190.373 208.956 190.289 209.232 190.122 209.474C189.957 209.715 189.738 209.871 189.466 209.943V209.977C189.676 210.015 189.865 210.105 190.034 210.247C190.203 210.387 190.337 210.562 190.437 210.773C190.538 210.981 190.589 211.208 190.591 211.455C190.589 211.769 190.504 212.049 190.335 212.295C190.168 212.54 189.936 212.732 189.639 212.872C189.344 213.01 189.002 213.08 188.613 213.08ZM188.613 212.455C188.877 212.455 189.104 212.412 189.295 212.327C189.487 212.241 189.634 212.121 189.738 211.966C189.843 211.811 189.896 211.629 189.898 211.42C189.896 211.201 189.839 211.007 189.727 210.838C189.615 210.67 189.463 210.537 189.27 210.44C189.078 210.344 188.86 210.295 188.613 210.295C188.365 210.295 188.144 210.344 187.949 210.44C187.756 210.537 187.603 210.67 187.491 210.838C187.381 211.007 187.328 211.201 187.329 211.42C187.328 211.629 187.378 211.811 187.48 211.966C187.584 212.121 187.733 212.241 187.926 212.327C188.119 212.412 188.348 212.455 188.613 212.455ZM188.613 209.693C188.822 209.693 189.006 209.652 189.167 209.568C189.33 209.485 189.458 209.368 189.551 209.219C189.644 209.069 189.691 208.894 189.693 208.693C189.691 208.496 189.645 208.325 189.554 208.179C189.463 208.031 189.337 207.918 189.176 207.838C189.015 207.757 188.828 207.716 188.613 207.716C188.396 207.716 188.205 207.757 188.042 207.838C187.88 207.918 187.754 208.031 187.665 208.179C187.576 208.325 187.532 208.496 187.534 208.693C187.532 208.894 187.577 209.069 187.667 209.219C187.76 209.368 187.888 209.485 188.051 209.568C188.214 209.652 188.401 209.693 188.613 209.693Z" fill="#6E6E6E"/>
<path d="M486.813 207.182V213H486.108V207.92H486.074L484.654 208.864V208.148L486.108 207.182H486.813ZM490.35 213.08C489.959 213.08 489.615 213.01 489.315 212.872C489.018 212.732 488.786 212.54 488.619 212.295C488.453 212.049 488.37 211.769 488.372 211.455C488.37 211.208 488.419 210.981 488.517 210.773C488.616 210.562 488.75 210.387 488.921 210.247C489.093 210.105 489.285 210.015 489.497 209.977V209.943C489.219 209.871 488.997 209.715 488.833 209.474C488.668 209.232 488.586 208.956 488.588 208.648C488.586 208.352 488.661 208.088 488.813 207.855C488.964 207.622 489.172 207.438 489.438 207.304C489.705 207.17 490.009 207.102 490.35 207.102C490.687 207.102 490.988 207.17 491.253 207.304C491.518 207.438 491.726 207.622 491.878 207.855C492.031 208.088 492.109 208.352 492.111 208.648C492.109 208.956 492.025 209.232 491.858 209.474C491.693 209.715 491.475 209.871 491.202 209.943V209.977C491.412 210.015 491.601 210.105 491.77 210.247C491.939 210.387 492.073 210.562 492.173 210.773C492.274 210.981 492.325 211.208 492.327 211.455C492.325 211.769 492.24 212.049 492.071 212.295C491.905 212.54 491.672 212.732 491.375 212.872C491.08 213.01 490.738 213.08 490.35 213.08ZM490.35 212.455C490.613 212.455 490.84 212.412 491.031 212.327C491.223 212.241 491.37 212.121 491.475 211.966C491.579 211.811 491.632 211.629 491.634 211.42C491.632 211.201 491.575 211.007 491.463 210.838C491.351 210.67 491.199 210.537 491.006 210.44C490.815 210.344 490.596 210.295 490.35 210.295C490.101 210.295 489.88 210.344 489.685 210.44C489.492 210.537 489.339 210.67 489.227 210.838C489.118 211.007 489.064 211.201 489.065 211.42C489.064 211.629 489.114 211.811 489.216 211.966C489.32 212.121 489.469 212.241 489.662 212.327C489.855 212.412 490.084 212.455 490.35 212.455ZM490.35 209.693C490.558 209.693 490.743 209.652 490.904 209.568C491.066 209.485 491.194 209.368 491.287 209.219C491.38 209.069 491.427 208.894 491.429 208.693C491.427 208.496 491.381 208.325 491.29 208.179C491.199 208.031 491.073 207.918 490.912 207.838C490.751 207.757 490.564 207.716 490.35 207.716C490.132 207.716 489.941 207.757 489.779 207.838C489.616 207.918 489.49 208.031 489.401 208.179C489.312 208.325 489.268 208.496 489.27 208.693C489.268 208.894 489.313 209.069 489.404 209.219C489.496 209.368 489.624 209.485 489.787 209.568C489.95 209.652 490.137 209.693 490.35 209.693Z" fill="#6E6E6E"/>
<line x1="22.0212" y1="164.5" x2="666.5" y2="164.5" stroke="#A1A1A1" stroke-dasharray="5 5"/>
<line x1="22.0212" y1="124.5" x2="666.5" y2="124.5" stroke="#A1A1A1" stroke-dasharray="5 5"/>
<line x1="22.0212" y1="84.5" x2="666.5" y2="84.5" stroke="#A1A1A1" stroke-dasharray="5 5"/>
<line x1="22.0212" y1="44.5" x2="666.5" y2="44.5" stroke="#A1A1A1" stroke-dasharray="5 5"/>
<line x1="22.0212" y1="4.5" x2="666.5" y2="4.5" stroke="#A1A1A1" stroke-dasharray="5 5"/>
<path d="M58.0697 45L22.4816 203.5L666.513 204V78.5H634.942L601.65 119.5L584.43 102L554.582 103L536.788 137.5L504.644 145.5L483.406 133.5L473.648 145.5L443.226 119.5L424.283 144.5L377.215 144L352.533 47L336.461 128L291.115 169L264.137 129L203.292 115L183.202 75L145.318 177L117.192 106.5L102.842 118.5L77.0118 106.5L58.0697 45Z" fill="url(#paint0_linear_41_138)" stroke="#F3F4FB" stroke-linecap="round" stroke-linejoin="round"/>
<path d="M22.4816 204L58.6115 45L77.5368 106.5L103.344 118.5L117.681 106.5L145.782 177L183.633 75L203.705 115L264.495 129L291.449 169L336.755 128L352.813 47L377.473 144L424.499 144.5L443.424 119.5L473.819 145.5L483.569 133.5L504.788 145.5L536.904 137.5L554.682 103L584.503 102L601.708 119.5L634.971 78.5H666.513" stroke="#0A76E7" stroke-linecap="round" stroke-linejoin="round"/>
<line x1="22.0212" y1="204.5" x2="666.5" y2="204.5" stroke="#A1A1A1"/>
<ellipse cx="665.851" cy="78.5" rx="1.98367" ry="1.5" fill="#0A76E7"/>
<defs>
<linearGradient id="paint0_linear_41_138" x1="345.932" y1="45" x2="345.932" y2="206" gradientUnits="userSpaceOnUse">
<stop stop-color="#A5D1FE"/>
<stop offset="0.458333" stop-color="#79B4F2" stop-opacity="0.546875"/>
<stop offset="1" stop-color="#E6F2FF" stop-opacity="0.43"/>
</linearGradient>
</defs>
</svg>
