<svg width="506" height="215" viewBox="0 0 506 215" fill="none" xmlns="http://www.w3.org/2000/svg">
<path d="M4.60227 168V167.489L6.52273 165.386C6.74811 165.14 6.93371 164.926 7.07955 164.744C7.22538 164.561 7.33333 164.388 7.40341 164.227C7.47538 164.064 7.51136 163.894 7.51136 163.716C7.51136 163.511 7.46212 163.334 7.36364 163.185C7.26705 163.035 7.13447 162.92 6.96591 162.838C6.79735 162.757 6.60795 162.716 6.39773 162.716C6.17424 162.716 5.97917 162.762 5.8125 162.855C5.64773 162.946 5.51989 163.074 5.42898 163.239C5.33996 163.403 5.29545 163.597 5.29545 163.818H4.625C4.625 163.477 4.7036 163.178 4.8608 162.92C5.01799 162.663 5.23201 162.462 5.50284 162.318C5.77557 162.174 6.08144 162.102 6.42045 162.102C6.76136 162.102 7.06345 162.174 7.3267 162.318C7.58996 162.462 7.7964 162.656 7.94602 162.901C8.09564 163.145 8.17045 163.417 8.17045 163.716C8.17045 163.93 8.13163 164.139 8.05398 164.344C7.97822 164.546 7.84564 164.773 7.65625 165.023C7.46875 165.271 7.20833 165.574 6.875 165.932L5.56818 167.33V167.375H8.27273V168H4.60227ZM11.3438 168.08C10.9157 168.08 10.5511 167.963 10.25 167.73C9.94886 167.495 9.71875 167.155 9.55966 166.71C9.40057 166.263 9.32102 165.723 9.32102 165.091C9.32102 164.462 9.40057 163.925 9.55966 163.48C9.72064 163.033 9.9517 162.692 10.2528 162.457C10.5559 162.221 10.9195 162.102 11.3438 162.102C11.768 162.102 12.1307 162.221 12.4318 162.457C12.7348 162.692 12.9659 163.033 13.125 163.48C13.286 163.925 13.3665 164.462 13.3665 165.091C13.3665 165.723 13.2869 166.263 13.1278 166.71C12.9688 167.155 12.7386 167.495 12.4375 167.73C12.1364 167.963 11.7718 168.08 11.3438 168.08ZM11.3438 167.455C11.768 167.455 12.0975 167.25 12.3324 166.841C12.5672 166.432 12.6847 165.848 12.6847 165.091C12.6847 164.587 12.6307 164.158 12.5227 163.804C12.4167 163.45 12.2633 163.18 12.0625 162.994C11.8636 162.809 11.6241 162.716 11.3438 162.716C10.9233 162.716 10.5947 162.923 10.358 163.338C10.1212 163.751 10.0028 164.335 10.0028 165.091C10.0028 165.595 10.0559 166.023 10.1619 166.375C10.268 166.727 10.4205 166.995 10.6193 167.179C10.8201 167.363 11.0616 167.455 11.3438 167.455Z" fill="#6E6E6E"/>
<path d="M3.46591 126.807V126.227L6.02273 122.182H6.44318V123.08H6.15909L4.22727 126.136V126.182H7.67045V126.807H3.46591ZM6.20455 128V126.631V126.361V122.182H6.875V128H6.20455ZM10.6328 128.08C10.2048 128.08 9.8402 127.963 9.53906 127.73C9.23793 127.495 9.00781 127.155 8.84872 126.71C8.68963 126.263 8.61009 125.723 8.61009 125.091C8.61009 124.462 8.68963 123.925 8.84872 123.48C9.00971 123.033 9.24077 122.692 9.5419 122.457C9.84493 122.221 10.2086 122.102 10.6328 122.102C11.0571 122.102 11.4197 122.221 11.7209 122.457C12.0239 122.692 12.255 123.033 12.4141 123.48C12.575 123.925 12.6555 124.462 12.6555 125.091C12.6555 125.723 12.576 126.263 12.4169 126.71C12.2578 127.155 12.0277 127.495 11.7266 127.73C11.4254 127.963 11.0608 128.08 10.6328 128.08ZM10.6328 127.455C11.0571 127.455 11.3866 127.25 11.6214 126.841C11.8563 126.432 11.9737 125.848 11.9737 125.091C11.9737 124.587 11.9197 124.158 11.8118 123.804C11.7057 123.45 11.5523 123.18 11.3516 122.994C11.1527 122.809 10.9131 122.716 10.6328 122.716C10.2124 122.716 9.88376 122.923 9.64702 123.338C9.41027 123.751 9.2919 124.335 9.2919 125.091C9.2919 125.595 9.34493 126.023 9.45099 126.375C9.55705 126.727 9.70952 126.995 9.90838 127.179C10.1091 127.363 10.3506 127.455 10.6328 127.455Z" fill="#6E6E6E"/>
<path d="M6.53409 88.0795C6.29545 88.0758 6.05682 88.0303 5.81818 87.9432C5.57955 87.8561 5.36174 87.7093 5.16477 87.5028C4.9678 87.2945 4.80966 87.0133 4.69034 86.6591C4.57102 86.303 4.51136 85.8561 4.51136 85.3182C4.51136 84.803 4.55966 84.3466 4.65625 83.9489C4.75284 83.5492 4.89299 83.2131 5.0767 82.9403C5.26042 82.6657 5.48201 82.4574 5.74148 82.3153C6.00284 82.1733 6.29735 82.1023 6.625 82.1023C6.95076 82.1023 7.24053 82.1676 7.49432 82.2983C7.75 82.4271 7.95833 82.607 8.11932 82.8381C8.2803 83.0691 8.38447 83.3352 8.43182 83.6364H7.73864C7.67424 83.375 7.54924 83.1581 7.36364 82.9858C7.17803 82.8134 6.93182 82.7273 6.625 82.7273C6.17424 82.7273 5.81913 82.9233 5.55966 83.3153C5.30208 83.7074 5.17235 84.2576 5.17045 84.9659H5.21591C5.32197 84.8049 5.44792 84.6676 5.59375 84.554C5.74148 84.4384 5.90436 84.3494 6.08239 84.2869C6.26042 84.2244 6.44886 84.1932 6.64773 84.1932C6.98106 84.1932 7.28598 84.2765 7.5625 84.4432C7.83902 84.608 8.06061 84.8362 8.22727 85.1278C8.39394 85.4176 8.47727 85.75 8.47727 86.125C8.47727 86.4848 8.39678 86.8144 8.2358 87.1136C8.07481 87.411 7.84848 87.6477 7.55682 87.8239C7.26705 87.9981 6.92614 88.0833 6.53409 88.0795ZM6.53409 87.4545C6.77273 87.4545 6.98674 87.3949 7.17614 87.2756C7.36742 87.1562 7.51799 86.9962 7.62784 86.7955C7.73958 86.5947 7.79545 86.3712 7.79545 86.125C7.79545 85.8845 7.74148 85.6657 7.63352 85.4688C7.52746 85.2699 7.38068 85.1117 7.19318 84.9943C7.00758 84.8769 6.79545 84.8182 6.55682 84.8182C6.37689 84.8182 6.20928 84.8542 6.05398 84.9261C5.89867 84.9962 5.76231 85.0928 5.64489 85.2159C5.52936 85.339 5.43845 85.4801 5.37216 85.6392C5.30587 85.7964 5.27273 85.9621 5.27273 86.1364C5.27273 86.3674 5.3267 86.5833 5.43466 86.7841C5.54451 86.9848 5.69413 87.1468 5.88352 87.2699C6.07481 87.393 6.29167 87.4545 6.53409 87.4545ZM11.4922 88.0795C11.0642 88.0795 10.6996 87.9631 10.3984 87.7301C10.0973 87.4953 9.86719 87.1553 9.7081 86.7102C9.54901 86.2633 9.46946 85.7235 9.46946 85.0909C9.46946 84.4621 9.54901 83.9252 9.7081 83.4801C9.86908 83.0331 10.1001 82.6922 10.4013 82.4574C10.7043 82.2206 11.0679 82.1023 11.4922 82.1023C11.9164 82.1023 12.2791 82.2206 12.5803 82.4574C12.8833 82.6922 13.1143 83.0331 13.2734 83.4801C13.4344 83.9252 13.5149 84.4621 13.5149 85.0909C13.5149 85.7235 13.4354 86.2633 13.2763 86.7102C13.1172 87.1553 12.8871 87.4953 12.5859 87.7301C12.2848 87.9631 11.9202 88.0795 11.4922 88.0795ZM11.4922 87.4545C11.9164 87.4545 12.246 87.25 12.4808 86.8409C12.7157 86.4318 12.8331 85.8485 12.8331 85.0909C12.8331 84.5871 12.7791 84.1581 12.6712 83.804C12.5651 83.4498 12.4117 83.1799 12.2109 82.9943C12.0121 82.8087 11.7725 82.7159 11.4922 82.7159C11.0717 82.7159 10.7431 82.9233 10.5064 83.3381C10.2696 83.7509 10.1513 84.3352 10.1513 85.0909C10.1513 85.5947 10.2043 86.0227 10.3104 86.375C10.4164 86.7273 10.5689 86.9953 10.7678 87.179C10.9685 87.3627 11.21 87.4545 11.4922 87.4545Z" fill="#6E6E6E"/>
<path d="M6.46591 48.0795C6.07576 48.0795 5.73106 48.0104 5.43182 47.8722C5.13447 47.732 4.90246 47.5398 4.7358 47.2955C4.56913 47.0492 4.48674 46.7689 4.48864 46.4545C4.48674 46.2083 4.53504 45.9811 4.63352 45.7727C4.73201 45.5625 4.86648 45.3873 5.03693 45.2472C5.20928 45.1051 5.40152 45.0152 5.61364 44.9773V44.9432C5.33523 44.8712 5.11364 44.715 4.94886 44.4744C4.78409 44.232 4.70265 43.9564 4.70455 43.6477C4.70265 43.3523 4.77746 43.0881 4.92898 42.8551C5.08049 42.6222 5.28883 42.4384 5.55398 42.304C5.82102 42.1695 6.125 42.1023 6.46591 42.1023C6.80303 42.1023 7.10417 42.1695 7.36932 42.304C7.63447 42.4384 7.8428 42.6222 7.99432 42.8551C8.14773 43.0881 8.22538 43.3523 8.22727 43.6477C8.22538 43.9564 8.1411 44.232 7.97443 44.4744C7.80966 44.715 7.59091 44.8712 7.31818 44.9432V44.9773C7.52841 45.0152 7.7178 45.1051 7.88636 45.2472C8.05492 45.3873 8.18939 45.5625 8.28977 45.7727C8.39015 45.9811 8.44129 46.2083 8.44318 46.4545C8.44129 46.7689 8.35606 47.0492 8.1875 47.2955C8.02083 47.5398 7.78883 47.732 7.49148 47.8722C7.19602 48.0104 6.85417 48.0795 6.46591 48.0795ZM6.46591 47.4545C6.72917 47.4545 6.95644 47.4119 7.14773 47.3267C7.33902 47.2415 7.48674 47.1212 7.59091 46.9659C7.69508 46.8106 7.74811 46.6288 7.75 46.4205C7.74811 46.2008 7.69129 46.0066 7.57955 45.8381C7.4678 45.6695 7.31534 45.5369 7.12216 45.4403C6.93087 45.3437 6.71212 45.2955 6.46591 45.2955C6.2178 45.2955 5.99621 45.3437 5.80114 45.4403C5.60795 45.5369 5.45549 45.6695 5.34375 45.8381C5.2339 46.0066 5.17992 46.2008 5.18182 46.4205C5.17992 46.6288 5.23011 46.8106 5.33239 46.9659C5.43655 47.1212 5.58523 47.2415 5.77841 47.3267C5.97159 47.4119 6.20076 47.4545 6.46591 47.4545ZM6.46591 44.6932C6.67424 44.6932 6.8589 44.6515 7.01989 44.5682C7.18277 44.4848 7.31061 44.3684 7.40341 44.2188C7.49621 44.0691 7.54356 43.8939 7.54545 43.6932C7.54356 43.4962 7.49716 43.3248 7.40625 43.179C7.31534 43.0312 7.18939 42.9176 7.02841 42.8381C6.86742 42.7566 6.67992 42.7159 6.46591 42.7159C6.24811 42.7159 6.05777 42.7566 5.89489 42.8381C5.73201 42.9176 5.60606 43.0312 5.51705 43.179C5.42803 43.3248 5.38447 43.4962 5.38636 43.6932C5.38447 43.8939 5.42898 44.0691 5.51989 44.2188C5.61269 44.3684 5.74053 44.4848 5.90341 44.5682C6.06629 44.6515 6.25379 44.6932 6.46591 44.6932ZM11.4297 48.0795C11.0017 48.0795 10.6371 47.9631 10.3359 47.7301C10.0348 47.4953 9.80469 47.1553 9.6456 46.7102C9.48651 46.2633 9.40696 45.7235 9.40696 45.0909C9.40696 44.4621 9.48651 43.9252 9.6456 43.4801C9.80658 43.0331 10.0376 42.6922 10.3388 42.4574C10.6418 42.2206 11.0054 42.1023 11.4297 42.1023C11.8539 42.1023 12.2166 42.2206 12.5178 42.4574C12.8208 42.6922 13.0518 43.0331 13.2109 43.4801C13.3719 43.9252 13.4524 44.4621 13.4524 45.0909C13.4524 45.7235 13.3729 46.2633 13.2138 46.7102C13.0547 47.1553 12.8246 47.4953 12.5234 47.7301C12.2223 47.9631 11.8577 48.0795 11.4297 48.0795ZM11.4297 47.4545C11.8539 47.4545 12.1835 47.25 12.4183 46.8409C12.6532 46.4318 12.7706 45.8485 12.7706 45.0909C12.7706 44.5871 12.7166 44.1581 12.6087 43.804C12.5026 43.4498 12.3492 43.1799 12.1484 42.9943C11.9496 42.8087 11.71 42.7159 11.4297 42.7159C11.0092 42.7159 10.6806 42.9233 10.4439 43.3381C10.2071 43.7509 10.0888 44.3352 10.0888 45.0909C10.0888 45.5947 10.1418 46.0227 10.2479 46.375C10.3539 46.7273 10.5064 46.9953 10.7053 47.179C10.906 47.3627 11.1475 47.4545 11.4297 47.4545Z" fill="#6E6E6E"/>
<path d="M2.64773 2.18182V8H1.94318V2.92045H1.90909L0.488636 3.86364V3.14773L1.94318 2.18182H2.64773ZM6.21875 8.07955C5.79072 8.07955 5.42614 7.96307 5.125 7.73011C4.82386 7.49527 4.59375 7.1553 4.43466 6.71023C4.27557 6.26326 4.19602 5.72348 4.19602 5.09091C4.19602 4.46212 4.27557 3.92519 4.43466 3.48011C4.59564 3.03314 4.8267 2.69223 5.12784 2.45739C5.43087 2.22064 5.79451 2.10227 6.21875 2.10227C6.64299 2.10227 7.00568 2.22064 7.30682 2.45739C7.60985 2.69223 7.84091 3.03314 8 3.48011C8.16098 3.92519 8.24148 4.46212 8.24148 5.09091C8.24148 5.72348 8.16193 6.26326 8.00284 6.71023C7.84375 7.1553 7.61364 7.49527 7.3125 7.73011C7.01136 7.96307 6.64678 8.07955 6.21875 8.07955ZM6.21875 7.45455C6.64299 7.45455 6.97254 7.25 7.20739 6.84091C7.44223 6.43182 7.55966 5.84848 7.55966 5.09091C7.55966 4.58712 7.50568 4.15814 7.39773 3.80398C7.29167 3.44981 7.13826 3.17992 6.9375 2.99432C6.73864 2.80871 6.49905 2.71591 6.21875 2.71591C5.7983 2.71591 5.4697 2.9233 5.23295 3.33807C4.99621 3.75095 4.87784 4.33523 4.87784 5.09091C4.87784 5.5947 4.93087 6.02273 5.03693 6.375C5.14299 6.72727 5.29545 6.99527 5.49432 7.17898C5.69508 7.36269 5.93655 7.45455 6.21875 7.45455ZM11.2188 8.07955C10.7907 8.07955 10.4261 7.96307 10.125 7.73011C9.82386 7.49527 9.59375 7.1553 9.43466 6.71023C9.27557 6.26326 9.19602 5.72348 9.19602 5.09091C9.19602 4.46212 9.27557 3.92519 9.43466 3.48011C9.59564 3.03314 9.8267 2.69223 10.1278 2.45739C10.4309 2.22064 10.7945 2.10227 11.2188 2.10227C11.643 2.10227 12.0057 2.22064 12.3068 2.45739C12.6098 2.69223 12.8409 3.03314 13 3.48011C13.161 3.92519 13.2415 4.46212 13.2415 5.09091C13.2415 5.72348 13.1619 6.26326 13.0028 6.71023C12.8438 7.1553 12.6136 7.49527 12.3125 7.73011C12.0114 7.96307 11.6468 8.07955 11.2188 8.07955ZM11.2188 7.45455C11.643 7.45455 11.9725 7.25 12.2074 6.84091C12.4422 6.43182 12.5597 5.84848 12.5597 5.09091C12.5597 4.58712 12.5057 4.15814 12.3977 3.80398C12.2917 3.44981 12.1383 3.17992 11.9375 2.99432C11.7386 2.80871 11.4991 2.71591 11.2188 2.71591C10.7983 2.71591 10.4697 2.9233 10.233 3.33807C9.99621 3.75095 9.87784 4.33523 9.87784 5.09091C9.87784 5.5947 9.93087 6.02273 10.0369 6.375C10.143 6.72727 10.2955 6.99527 10.4943 7.17898C10.6951 7.36269 10.9366 7.45455 11.2188 7.45455Z" fill="#6E6E6E"/>
<path d="M19.6477 207.182V213H18.9432V207.92H18.9091L17.4886 208.864V208.148L18.9432 207.182H19.6477Z" fill="#6E6E6E"/>
<path d="M440.396 213V212.489L442.317 210.386C442.542 210.14 442.728 209.926 442.874 209.744C443.02 209.561 443.128 209.388 443.198 209.227C443.27 209.064 443.306 208.894 443.306 208.716C443.306 208.511 443.256 208.334 443.158 208.185C443.061 208.035 442.929 207.92 442.76 207.838C442.592 207.757 442.402 207.716 442.192 207.716C441.968 207.716 441.773 207.762 441.607 207.855C441.442 207.946 441.314 208.074 441.223 208.239C441.134 208.403 441.09 208.597 441.09 208.818H440.419C440.419 208.477 440.498 208.178 440.655 207.92C440.812 207.663 441.026 207.462 441.297 207.318C441.57 207.174 441.876 207.102 442.215 207.102C442.556 207.102 442.858 207.174 443.121 207.318C443.384 207.462 443.591 207.656 443.74 207.901C443.89 208.145 443.965 208.417 443.965 208.716C443.965 208.93 443.926 209.139 443.848 209.344C443.772 209.546 443.64 209.773 443.45 210.023C443.263 210.271 443.003 210.574 442.669 210.932L441.362 212.33V212.375H444.067V213H440.396ZM447.286 207.182V213H446.581V207.92H446.547L445.127 208.864V208.148L446.581 207.182H447.286Z" fill="#6E6E6E"/>
<path d="M202.312 207.182V213H201.607V207.92H201.573L200.153 208.864V208.148L201.607 207.182H202.312ZM206.031 207.182V213H205.326V207.92H205.292L203.871 208.864V208.148L205.326 207.182H206.031Z" fill="#6E6E6E"/>
<path d="M160.66 207.102C160.899 207.104 161.138 207.15 161.376 207.239C161.615 207.328 161.833 207.475 162.03 207.682C162.227 207.886 162.385 208.166 162.504 208.52C162.623 208.874 162.683 209.318 162.683 209.852C162.683 210.369 162.634 210.829 162.535 211.23C162.439 211.63 162.298 211.967 162.115 212.241C161.933 212.516 161.711 212.724 161.45 212.866C161.191 213.009 160.897 213.08 160.569 213.08C160.244 213.08 159.953 213.015 159.697 212.886C159.443 212.756 159.235 212.575 159.072 212.344C158.911 212.111 158.808 211.841 158.763 211.534H159.456C159.518 211.801 159.642 212.022 159.828 212.196C160.015 212.368 160.263 212.455 160.569 212.455C161.018 212.455 161.372 212.259 161.632 211.866C161.893 211.474 162.024 210.92 162.024 210.205H161.978C161.872 210.364 161.746 210.501 161.601 210.616C161.455 210.732 161.293 210.821 161.115 210.884C160.937 210.946 160.747 210.977 160.547 210.977C160.213 210.977 159.907 210.895 159.629 210.73C159.352 210.563 159.131 210.335 158.964 210.045C158.799 209.754 158.717 209.42 158.717 209.045C158.717 208.689 158.797 208.364 158.956 208.068C159.117 207.771 159.342 207.534 159.632 207.358C159.923 207.182 160.266 207.097 160.66 207.102ZM160.66 207.727C160.422 207.727 160.207 207.787 160.015 207.906C159.826 208.024 159.675 208.183 159.564 208.384C159.454 208.582 159.399 208.803 159.399 209.045C159.399 209.288 159.452 209.509 159.558 209.707C159.666 209.904 159.813 210.062 159.998 210.179C160.186 210.295 160.399 210.352 160.638 210.352C160.817 210.352 160.985 210.317 161.14 210.247C161.296 210.175 161.431 210.078 161.547 209.955C161.664 209.83 161.756 209.688 161.822 209.531C161.888 209.372 161.922 209.206 161.922 209.034C161.922 208.807 161.867 208.594 161.757 208.395C161.649 208.196 161.499 208.035 161.308 207.912C161.119 207.789 160.903 207.727 160.66 207.727Z" fill="#6E6E6E"/>
<path d="M392.774 207.182V213H392.07V207.92H392.035L390.615 208.864V208.148L392.07 207.182H392.774ZM396.3 207.102C396.538 207.104 396.777 207.15 397.016 207.239C397.254 207.328 397.472 207.475 397.669 207.682C397.866 207.886 398.024 208.166 398.143 208.52C398.263 208.874 398.322 209.318 398.322 209.852C398.322 210.369 398.273 210.829 398.175 211.23C398.078 211.63 397.938 211.967 397.754 212.241C397.572 212.516 397.351 212.724 397.089 212.866C396.83 213.009 396.536 213.08 396.209 213.08C395.883 213.08 395.592 213.015 395.337 212.886C395.083 212.756 394.874 212.575 394.712 212.344C394.551 212.111 394.447 211.841 394.402 211.534H395.095C395.158 211.801 395.282 212.022 395.467 212.196C395.655 212.368 395.902 212.455 396.209 212.455C396.658 212.455 397.012 212.259 397.271 211.866C397.533 211.474 397.663 210.92 397.663 210.205H397.618C397.512 210.364 397.386 210.501 397.24 210.616C397.094 210.732 396.932 210.821 396.754 210.884C396.576 210.946 396.387 210.977 396.186 210.977C395.853 210.977 395.547 210.895 395.268 210.73C394.992 210.563 394.77 210.335 394.604 210.045C394.439 209.754 394.356 209.42 394.356 209.045C394.356 208.689 394.436 208.364 394.595 208.068C394.756 207.771 394.981 207.534 395.271 207.358C395.563 207.182 395.906 207.097 396.3 207.102ZM396.3 207.727C396.061 207.727 395.846 207.787 395.655 207.906C395.465 208.024 395.315 208.183 395.203 208.384C395.093 208.582 395.038 208.803 395.038 209.045C395.038 209.288 395.091 209.509 395.197 209.707C395.305 209.904 395.452 210.062 395.638 210.179C395.825 210.295 396.038 210.352 396.277 210.352C396.457 210.352 396.624 210.317 396.78 210.247C396.935 210.175 397.07 210.078 397.186 209.955C397.303 209.83 397.395 209.688 397.462 209.531C397.528 209.372 397.561 209.206 397.561 209.034C397.561 208.807 397.506 208.594 397.396 208.395C397.288 208.196 397.139 208.035 396.947 207.912C396.758 207.789 396.542 207.727 396.3 207.727Z" fill="#6E6E6E"/>
<path d="M90.8443 213.08C90.5109 213.08 90.2108 213.013 89.9437 212.881C89.6767 212.748 89.4627 212.566 89.3017 212.335C89.1407 212.104 89.0526 211.841 89.0375 211.545H89.7193C89.7458 211.809 89.8651 212.027 90.0772 212.199C90.2913 212.369 90.5469 212.455 90.8443 212.455C91.0829 212.455 91.295 212.399 91.4806 212.287C91.6681 212.175 91.8149 212.022 91.921 211.827C92.0289 211.63 92.0829 211.407 92.0829 211.159C92.0829 210.905 92.027 210.679 91.9153 210.48C91.8055 210.279 91.6539 210.121 91.4608 210.006C91.2676 209.89 91.0469 209.831 90.7988 209.83C90.6208 209.828 90.438 209.855 90.2505 209.912C90.063 209.967 89.9087 210.038 89.7875 210.125L89.1284 210.045L89.4806 207.182H92.5034V207.807H90.0716L89.867 209.523H89.9011C90.0204 209.428 90.17 209.349 90.35 209.287C90.5299 209.224 90.7174 209.193 90.9125 209.193C91.2685 209.193 91.5858 209.278 91.8642 209.449C92.1445 209.617 92.3642 209.848 92.5233 210.142C92.6842 210.436 92.7647 210.771 92.7647 211.148C92.7647 211.519 92.6814 211.85 92.5147 212.142C92.35 212.432 92.1227 212.661 91.8329 212.83C91.5431 212.996 91.2136 213.08 90.8443 213.08Z" fill="#6E6E6E"/>
<path d="M296.722 207.182V213H296.017V207.92H295.983L294.563 208.864V208.148L296.017 207.182H296.722ZM300.213 213.08C299.88 213.08 299.58 213.013 299.313 212.881C299.046 212.748 298.832 212.566 298.671 212.335C298.51 212.104 298.422 211.841 298.407 211.545H299.088C299.115 211.809 299.234 212.027 299.446 212.199C299.66 212.369 299.916 212.455 300.213 212.455C300.452 212.455 300.664 212.399 300.85 212.287C301.037 212.175 301.184 212.022 301.29 211.827C301.398 211.63 301.452 211.407 301.452 211.159C301.452 210.905 301.396 210.679 301.284 210.48C301.175 210.279 301.023 210.121 300.83 210.006C300.637 209.89 300.416 209.831 300.168 209.83C299.99 209.828 299.807 209.855 299.62 209.912C299.432 209.967 299.278 210.038 299.157 210.125L298.498 210.045L298.85 207.182H301.873V207.807H299.441L299.236 209.523H299.27C299.39 209.428 299.539 209.349 299.719 209.287C299.899 209.224 300.087 209.193 300.282 209.193C300.638 209.193 300.955 209.278 301.233 209.449C301.514 209.617 301.733 209.848 301.892 210.142C302.053 210.436 302.134 210.771 302.134 211.148C302.134 211.519 302.051 211.85 301.884 212.142C301.719 212.432 301.492 212.661 301.202 212.83C300.912 212.996 300.583 213.08 300.213 213.08Z" fill="#6E6E6E"/>
<path d="M52.8172 213.08C52.4422 213.08 52.1079 213.015 51.8144 212.886C51.5227 212.758 51.2907 212.579 51.1183 212.349C50.9479 212.118 50.8551 211.85 50.8399 211.545H51.5558C51.571 211.733 51.6354 211.895 51.749 212.031C51.8627 212.166 52.0113 212.27 52.195 212.344C52.3788 212.418 52.5824 212.455 52.8058 212.455C53.0558 212.455 53.2774 212.411 53.4706 212.324C53.6638 212.237 53.8153 212.116 53.9252 211.96C54.035 211.805 54.0899 211.625 54.0899 211.42C54.0899 211.206 54.0369 211.018 53.9308 210.855C53.8248 210.69 53.6695 210.562 53.4649 210.469C53.2604 210.376 53.0104 210.33 52.7149 210.33H52.249V209.705H52.7149C52.946 209.705 53.1486 209.663 53.3229 209.58C53.499 209.496 53.6363 209.379 53.7348 209.227C53.8352 209.076 53.8854 208.898 53.8854 208.693C53.8854 208.496 53.8418 208.325 53.7547 208.179C53.6676 208.033 53.5445 207.92 53.3854 207.838C53.2282 207.757 53.0426 207.716 52.8286 207.716C52.6278 207.716 52.4384 207.753 52.2604 207.827C52.0843 207.899 51.9403 208.004 51.8286 208.142C51.7168 208.278 51.6562 208.443 51.6468 208.636H50.9649C50.9763 208.331 51.0682 208.064 51.2405 207.835C51.4128 207.604 51.6382 207.424 51.9166 207.295C52.1969 207.167 52.5047 207.102 52.8399 207.102C53.1998 207.102 53.5085 207.175 53.7661 207.321C54.0236 207.465 54.2216 207.655 54.3598 207.892C54.4981 208.129 54.5672 208.384 54.5672 208.659C54.5672 208.987 54.481 209.266 54.3087 209.497C54.1382 209.728 53.9062 209.888 53.6127 209.977V210.023C53.9801 210.083 54.267 210.24 54.4735 210.491C54.6799 210.741 54.7831 211.051 54.7831 211.42C54.7831 211.737 54.6969 212.021 54.5246 212.273C54.3541 212.523 54.1212 212.72 53.8257 212.864C53.5303 213.008 53.1941 213.08 52.8172 213.08Z" fill="#6E6E6E"/>
<path d="M490.064 213V212.489L491.985 210.386C492.21 210.14 492.396 209.926 492.542 209.744C492.687 209.561 492.795 209.388 492.865 209.227C492.937 209.064 492.973 208.894 492.973 208.716C492.973 208.511 492.924 208.334 492.826 208.185C492.729 208.035 492.597 207.92 492.428 207.838C492.259 207.757 492.07 207.716 491.86 207.716C491.636 207.716 491.441 207.762 491.275 207.855C491.11 207.946 490.982 208.074 490.891 208.239C490.802 208.403 490.757 208.597 490.757 208.818H490.087C490.087 208.477 490.166 208.178 490.323 207.92C490.48 207.663 490.694 207.462 490.965 207.318C491.238 207.174 491.543 207.102 491.882 207.102C492.223 207.102 492.525 207.174 492.789 207.318C493.052 207.462 493.258 207.656 493.408 207.901C493.558 208.145 493.632 208.417 493.632 208.716C493.632 208.93 493.594 209.139 493.516 209.344C493.44 209.546 493.308 209.773 493.118 210.023C492.931 210.271 492.67 210.574 492.337 210.932L491.03 212.33V212.375H493.735V213H490.064ZM496.874 213.08C496.499 213.08 496.165 213.015 495.871 212.886C495.579 212.758 495.347 212.579 495.175 212.349C495.005 212.118 494.912 211.85 494.897 211.545H495.613C495.628 211.733 495.692 211.895 495.806 212.031C495.919 212.166 496.068 212.27 496.252 212.344C496.436 212.418 496.639 212.455 496.863 212.455C497.113 212.455 497.334 212.411 497.527 212.324C497.721 212.237 497.872 212.116 497.982 211.96C498.092 211.805 498.147 211.625 498.147 211.42C498.147 211.206 498.094 211.018 497.988 210.855C497.882 210.69 497.726 210.562 497.522 210.469C497.317 210.376 497.067 210.33 496.772 210.33H496.306V209.705H496.772C497.003 209.705 497.205 209.663 497.38 209.58C497.556 209.496 497.693 209.379 497.792 209.227C497.892 209.076 497.942 208.898 497.942 208.693C497.942 208.496 497.899 208.325 497.811 208.179C497.724 208.033 497.601 207.92 497.442 207.838C497.285 207.757 497.099 207.716 496.885 207.716C496.685 207.716 496.495 207.753 496.317 207.827C496.141 207.899 495.997 208.004 495.885 208.142C495.774 208.278 495.713 208.443 495.704 208.636H495.022C495.033 208.331 495.125 208.064 495.297 207.835C495.47 207.604 495.695 207.424 495.973 207.295C496.254 207.167 496.561 207.102 496.897 207.102C497.257 207.102 497.565 207.175 497.823 207.321C498.08 207.465 498.278 207.655 498.417 207.892C498.555 208.129 498.624 208.384 498.624 208.659C498.624 208.987 498.538 209.266 498.365 209.497C498.195 209.728 497.963 209.888 497.669 209.977V210.023C498.037 210.083 498.324 210.24 498.53 210.491C498.737 210.741 498.84 211.051 498.84 211.42C498.84 211.737 498.754 212.021 498.581 212.273C498.411 212.523 498.178 212.72 497.882 212.864C497.587 213.008 497.251 213.08 496.874 213.08Z" fill="#6E6E6E"/>
<path d="M248.696 207.182V213H247.991V207.92H247.957L246.537 208.864V208.148L247.991 207.182H248.696ZM252.335 213.08C251.96 213.08 251.626 213.015 251.332 212.886C251.041 212.758 250.809 212.579 250.636 212.349C250.466 212.118 250.373 211.85 250.358 211.545H251.074C251.089 211.733 251.153 211.895 251.267 212.031C251.38 212.166 251.529 212.27 251.713 212.344C251.897 212.418 252.1 212.455 252.324 212.455C252.574 212.455 252.795 212.411 252.988 212.324C253.182 212.237 253.333 212.116 253.443 211.96C253.553 211.805 253.608 211.625 253.608 211.42C253.608 211.206 253.555 211.018 253.449 210.855C253.343 210.69 253.187 210.562 252.983 210.469C252.778 210.376 252.528 210.33 252.233 210.33H251.767V209.705H252.233C252.464 209.705 252.666 209.663 252.841 209.58C253.017 209.496 253.154 209.379 253.253 209.227C253.353 209.076 253.403 208.898 253.403 208.693C253.403 208.496 253.36 208.325 253.273 208.179C253.185 208.033 253.062 207.92 252.903 207.838C252.746 207.757 252.56 207.716 252.346 207.716C252.146 207.716 251.956 207.753 251.778 207.827C251.602 207.899 251.458 208.004 251.346 208.142C251.235 208.278 251.174 208.443 251.165 208.636H250.483C250.494 208.331 250.586 208.064 250.758 207.835C250.931 207.604 251.156 207.424 251.434 207.295C251.715 207.167 252.023 207.102 252.358 207.102C252.718 207.102 253.026 207.175 253.284 207.321C253.541 207.465 253.739 207.655 253.878 207.892C254.016 208.129 254.085 208.384 254.085 208.659C254.085 208.987 253.999 209.266 253.827 209.497C253.656 209.728 253.424 209.888 253.13 209.977V210.023C253.498 210.083 253.785 210.24 253.991 210.491C254.198 210.741 254.301 211.051 254.301 211.42C254.301 211.737 254.215 212.021 254.042 212.273C253.872 212.523 253.639 212.72 253.344 212.864C253.048 213.008 252.712 213.08 252.335 213.08Z" fill="#6E6E6E"/>
<path d="M124.099 213L126.701 207.852V207.807H123.701V207.182H127.428V207.841L124.837 213H124.099Z" fill="#6E6E6E"/>
<path d="M344.748 207.182V213H344.044V207.92H344.009L342.589 208.864V208.148L344.044 207.182H344.748ZM346.603 213L349.205 207.852V207.807H346.205V207.182H349.933V207.841L347.342 213H346.603Z" fill="#6E6E6E"/>
<path d="M33.4059 213V212.489L35.3263 210.386C35.5517 210.14 35.7373 209.926 35.8831 209.744C36.029 209.561 36.1369 209.388 36.207 209.227C36.279 209.064 36.315 208.894 36.315 208.716C36.315 208.511 36.2657 208.334 36.1672 208.185C36.0706 208.035 35.9381 207.92 35.7695 207.838C35.6009 207.757 35.4115 207.716 35.2013 207.716C34.9778 207.716 34.7828 207.762 34.6161 207.855C34.4513 207.946 34.3235 208.074 34.2326 208.239C34.1436 208.403 34.099 208.597 34.099 208.818H33.4286C33.4286 208.477 33.5072 208.178 33.6644 207.92C33.8216 207.663 34.0356 207.462 34.3064 207.318C34.5792 207.174 34.885 207.102 35.224 207.102C35.565 207.102 35.867 207.174 36.1303 207.318C36.3936 207.462 36.6 207.656 36.7496 207.901C36.8992 208.145 36.974 208.417 36.974 208.716C36.974 208.93 36.9352 209.139 36.8576 209.344C36.7818 209.546 36.6492 209.773 36.4598 210.023C36.2723 210.271 36.0119 210.574 35.6786 210.932L34.3718 212.33V212.375H37.0763V213H33.4059Z" fill="#6E6E6E"/>
<path d="M464.41 213V212.489L466.33 210.386C466.555 210.14 466.741 209.926 466.887 209.744C467.033 209.561 467.141 209.388 467.211 209.227C467.283 209.064 467.319 208.894 467.319 208.716C467.319 208.511 467.269 208.334 467.171 208.185C467.074 208.035 466.942 207.92 466.773 207.838C466.605 207.757 466.415 207.716 466.205 207.716C465.981 207.716 465.786 207.762 465.62 207.855C465.455 207.946 465.327 208.074 465.236 208.239C465.147 208.403 465.103 208.597 465.103 208.818H464.432C464.432 208.477 464.511 208.178 464.668 207.92C464.825 207.663 465.039 207.462 465.31 207.318C465.583 207.174 465.889 207.102 466.228 207.102C466.569 207.102 466.871 207.174 467.134 207.318C467.397 207.462 467.604 207.656 467.753 207.901C467.903 208.145 467.978 208.417 467.978 208.716C467.978 208.93 467.939 209.139 467.861 209.344C467.785 209.546 467.653 209.773 467.464 210.023C467.276 210.271 467.016 210.574 466.682 210.932L465.375 212.33V212.375H468.08V213H464.41ZM469.253 213V212.489L471.174 210.386C471.399 210.14 471.585 209.926 471.731 209.744C471.876 209.561 471.984 209.388 472.054 209.227C472.126 209.064 472.162 208.894 472.162 208.716C472.162 208.511 472.113 208.334 472.015 208.185C471.918 208.035 471.785 207.92 471.617 207.838C471.448 207.757 471.259 207.716 471.049 207.716C470.825 207.716 470.63 207.762 470.464 207.855C470.299 207.946 470.171 208.074 470.08 208.239C469.991 208.403 469.946 208.597 469.946 208.818H469.276C469.276 208.477 469.355 208.178 469.512 207.92C469.669 207.663 469.883 207.462 470.154 207.318C470.427 207.174 470.732 207.102 471.071 207.102C471.412 207.102 471.714 207.174 471.978 207.318C472.241 207.462 472.447 207.656 472.597 207.901C472.747 208.145 472.821 208.417 472.821 208.716C472.821 208.93 472.783 209.139 472.705 209.344C472.629 209.546 472.497 209.773 472.307 210.023C472.12 210.271 471.859 210.574 471.526 210.932L470.219 212.33V212.375H472.924V213H469.253Z" fill="#6E6E6E"/>
<path d="M224.683 207.182V213H223.978V207.92H223.944L222.524 208.864V208.148L223.978 207.182H224.683ZM226.356 213V212.489L228.277 210.386C228.502 210.14 228.688 209.926 228.834 209.744C228.979 209.561 229.087 209.388 229.157 209.227C229.229 209.064 229.265 208.894 229.265 208.716C229.265 208.511 229.216 208.334 229.118 208.185C229.021 208.035 228.888 207.92 228.72 207.838C228.551 207.757 228.362 207.716 228.152 207.716C227.928 207.716 227.733 207.762 227.567 207.855C227.402 207.946 227.274 208.074 227.183 208.239C227.094 208.403 227.049 208.597 227.049 208.818H226.379C226.379 208.477 226.458 208.178 226.615 207.92C226.772 207.663 226.986 207.462 227.257 207.318C227.53 207.174 227.835 207.102 228.174 207.102C228.515 207.102 228.817 207.174 229.081 207.318C229.344 207.462 229.55 207.656 229.7 207.901C229.85 208.145 229.924 208.417 229.924 208.716C229.924 208.93 229.886 209.139 229.808 209.344C229.732 209.546 229.6 209.773 229.41 210.023C229.223 210.271 228.962 210.574 228.629 210.932L227.322 212.33V212.375H230.027V213H226.356Z" fill="#6E6E6E"/>
<path d="M178.299 207.182V213H177.594V207.92H177.56L176.14 208.864V208.148L177.594 207.182H178.299ZM181.87 213.08C181.442 213.08 181.077 212.963 180.776 212.73C180.475 212.495 180.245 212.155 180.086 211.71C179.927 211.263 179.847 210.723 179.847 210.091C179.847 209.462 179.927 208.925 180.086 208.48C180.247 208.033 180.478 207.692 180.779 207.457C181.082 207.221 181.446 207.102 181.87 207.102C182.294 207.102 182.657 207.221 182.958 207.457C183.261 207.692 183.492 208.033 183.651 208.48C183.812 208.925 183.892 209.462 183.892 210.091C183.892 210.723 183.813 211.263 183.654 211.71C183.495 212.155 183.265 212.495 182.964 212.73C182.662 212.963 182.298 213.08 181.87 213.08ZM181.87 212.455C182.294 212.455 182.624 212.25 182.858 211.841C183.093 211.432 183.211 210.848 183.211 210.091C183.211 209.587 183.157 209.158 183.049 208.804C182.943 208.45 182.789 208.18 182.589 207.994C182.39 207.809 182.15 207.716 181.87 207.716C181.449 207.716 181.121 207.923 180.884 208.338C180.647 208.751 180.529 209.335 180.529 210.091C180.529 210.595 180.582 211.023 180.688 211.375C180.794 211.727 180.946 211.995 181.145 212.179C181.346 212.363 181.588 212.455 181.87 212.455Z" fill="#6E6E6E"/>
<path d="M414.742 213V212.489L416.662 210.386C416.888 210.14 417.073 209.926 417.219 209.744C417.365 209.561 417.473 209.388 417.543 209.227C417.615 209.064 417.651 208.894 417.651 208.716C417.651 208.511 417.602 208.334 417.503 208.185C417.406 208.035 417.274 207.92 417.105 207.838C416.937 207.757 416.747 207.716 416.537 207.716C416.314 207.716 416.119 207.762 415.952 207.855C415.787 207.946 415.659 208.074 415.568 208.239C415.479 208.403 415.435 208.597 415.435 208.818H414.764C414.764 208.477 414.843 208.178 415 207.92C415.157 207.663 415.371 207.462 415.642 207.318C415.915 207.174 416.221 207.102 416.56 207.102C416.901 207.102 417.203 207.174 417.466 207.318C417.729 207.462 417.936 207.656 418.085 207.901C418.235 208.145 418.31 208.417 418.31 208.716C418.31 208.93 418.271 209.139 418.193 209.344C418.118 209.546 417.985 209.773 417.796 210.023C417.608 210.271 417.348 210.574 417.014 210.932L415.708 212.33V212.375H418.412V213H414.742ZM421.483 213.08C421.055 213.08 420.691 212.963 420.389 212.73C420.088 212.495 419.858 212.155 419.699 211.71C419.54 211.263 419.46 210.723 419.46 210.091C419.46 209.462 419.54 208.925 419.699 208.48C419.86 208.033 420.091 207.692 420.392 207.457C420.695 207.221 421.059 207.102 421.483 207.102C421.907 207.102 422.27 207.221 422.571 207.457C422.874 207.692 423.105 208.033 423.264 208.48C423.425 208.925 423.506 209.462 423.506 210.091C423.506 210.723 423.426 211.263 423.267 211.71C423.108 212.155 422.878 212.495 422.577 212.73C422.276 212.963 421.911 213.08 421.483 213.08ZM421.483 212.455C421.907 212.455 422.237 212.25 422.472 211.841C422.707 211.432 422.824 210.848 422.824 210.091C422.824 209.587 422.77 209.158 422.662 208.804C422.556 208.45 422.403 208.18 422.202 207.994C422.003 207.809 421.763 207.716 421.483 207.716C421.063 207.716 420.734 207.923 420.497 208.338C420.261 208.751 420.142 209.335 420.142 210.091C420.142 210.595 420.195 211.023 420.301 211.375C420.407 211.727 420.56 211.995 420.759 212.179C420.959 212.363 421.201 212.455 421.483 212.455Z" fill="#6E6E6E"/>
<path d="M108.403 213.08C108.165 213.076 107.926 213.03 107.687 212.943C107.449 212.856 107.231 212.709 107.034 212.503C106.837 212.295 106.679 212.013 106.559 211.659C106.44 211.303 106.381 210.856 106.381 210.318C106.381 209.803 106.429 209.347 106.525 208.949C106.622 208.549 106.762 208.213 106.946 207.94C107.13 207.666 107.351 207.457 107.611 207.315C107.872 207.173 108.166 207.102 108.494 207.102C108.82 207.102 109.11 207.168 109.363 207.298C109.619 207.427 109.827 207.607 109.988 207.838C110.149 208.069 110.254 208.335 110.301 208.636H109.608C109.543 208.375 109.418 208.158 109.233 207.986C109.047 207.813 108.801 207.727 108.494 207.727C108.043 207.727 107.688 207.923 107.429 208.315C107.171 208.707 107.041 209.258 107.04 209.966H107.085C107.191 209.805 107.317 209.668 107.463 209.554C107.611 209.438 107.773 209.349 107.952 209.287C108.13 209.224 108.318 209.193 108.517 209.193C108.85 209.193 109.155 209.277 109.432 209.443C109.708 209.608 109.93 209.836 110.096 210.128C110.263 210.418 110.346 210.75 110.346 211.125C110.346 211.485 110.266 211.814 110.105 212.114C109.944 212.411 109.718 212.648 109.426 212.824C109.136 212.998 108.795 213.083 108.403 213.08ZM108.403 212.455C108.642 212.455 108.856 212.395 109.045 212.276C109.237 212.156 109.387 211.996 109.497 211.795C109.609 211.595 109.665 211.371 109.665 211.125C109.665 210.884 109.611 210.666 109.503 210.469C109.397 210.27 109.25 210.112 109.062 209.994C108.877 209.877 108.665 209.818 108.426 209.818C108.246 209.818 108.078 209.854 107.923 209.926C107.768 209.996 107.631 210.093 107.514 210.216C107.398 210.339 107.308 210.48 107.241 210.639C107.175 210.796 107.142 210.962 107.142 211.136C107.142 211.367 107.196 211.583 107.304 211.784C107.414 211.985 107.563 212.147 107.753 212.27C107.944 212.393 108.161 212.455 108.403 212.455Z" fill="#6E6E6E"/>
<path d="M320.735 207.182V213H320.03V207.92H319.996L318.576 208.864V208.148L320.03 207.182H320.735ZM324.34 213.08C324.101 213.076 323.863 213.03 323.624 212.943C323.386 212.856 323.168 212.709 322.971 212.503C322.774 212.295 322.616 212.013 322.496 211.659C322.377 211.303 322.317 210.856 322.317 210.318C322.317 209.803 322.366 209.347 322.462 208.949C322.559 208.549 322.699 208.213 322.883 207.94C323.066 207.666 323.288 207.457 323.548 207.315C323.809 207.173 324.103 207.102 324.431 207.102C324.757 207.102 325.047 207.168 325.3 207.298C325.556 207.427 325.764 207.607 325.925 207.838C326.086 208.069 326.191 208.335 326.238 208.636H325.545C325.48 208.375 325.355 208.158 325.17 207.986C324.984 207.813 324.738 207.727 324.431 207.727C323.98 207.727 323.625 207.923 323.366 208.315C323.108 208.707 322.978 209.258 322.976 209.966H323.022C323.128 209.805 323.254 209.668 323.4 209.554C323.548 209.438 323.71 209.349 323.888 209.287C324.066 209.224 324.255 209.193 324.454 209.193C324.787 209.193 325.092 209.277 325.369 209.443C325.645 209.608 325.867 209.836 326.033 210.128C326.2 210.418 326.283 210.75 326.283 211.125C326.283 211.485 326.203 211.814 326.042 212.114C325.881 212.411 325.655 212.648 325.363 212.824C325.073 212.998 324.732 213.083 324.34 213.08ZM324.34 212.455C324.579 212.455 324.793 212.395 324.982 212.276C325.173 212.156 325.324 211.996 325.434 211.795C325.546 211.595 325.601 211.371 325.601 211.125C325.601 210.884 325.548 210.666 325.44 210.469C325.333 210.27 325.187 210.112 324.999 209.994C324.814 209.877 324.601 209.818 324.363 209.818C324.183 209.818 324.015 209.854 323.86 209.926C323.705 209.996 323.568 210.093 323.451 210.216C323.335 210.339 323.244 210.48 323.178 210.639C323.112 210.796 323.079 210.962 323.079 211.136C323.079 211.367 323.133 211.583 323.241 211.784C323.351 211.985 323.5 212.147 323.69 212.27C323.881 212.393 324.098 212.455 324.34 212.455Z" fill="#6E6E6E"/>
<path d="M69.8023 211.807V211.227L72.3591 207.182H72.7795V208.08H72.4955L70.5636 211.136V211.182H74.0068V211.807H69.8023ZM72.5409 213V211.631V211.361V207.182H73.2114V213H72.5409Z" fill="#6E6E6E"/>
<path d="M272.709 207.182V213H272.004V207.92H271.97L270.55 208.864V208.148L272.004 207.182H272.709ZM274.246 211.807V211.227L276.803 207.182H277.223V208.08H276.939L275.007 211.136V211.182H278.45V211.807H274.246ZM276.985 213V211.631V211.361V207.182H277.655V213H276.985Z" fill="#6E6E6E"/>
<path d="M143.226 213.08C142.836 213.08 142.491 213.01 142.192 212.872C141.895 212.732 141.663 212.54 141.496 212.295C141.329 212.049 141.247 211.769 141.249 211.455C141.247 211.208 141.295 210.981 141.394 210.773C141.492 210.562 141.627 210.387 141.797 210.247C141.969 210.105 142.162 210.015 142.374 209.977V209.943C142.095 209.871 141.874 209.715 141.709 209.474C141.544 209.232 141.463 208.956 141.465 208.648C141.463 208.352 141.538 208.088 141.689 207.855C141.841 207.622 142.049 207.438 142.314 207.304C142.581 207.17 142.885 207.102 143.226 207.102C143.563 207.102 143.864 207.17 144.129 207.304C144.395 207.438 144.603 207.622 144.754 207.855C144.908 208.088 144.986 208.352 144.987 208.648C144.986 208.956 144.901 209.232 144.735 209.474C144.57 209.715 144.351 209.871 144.078 209.943V209.977C144.289 210.015 144.478 210.105 144.646 210.247C144.815 210.387 144.95 210.562 145.05 210.773C145.15 210.981 145.201 211.208 145.203 211.455C145.201 211.769 145.116 212.049 144.948 212.295C144.781 212.54 144.549 212.732 144.252 212.872C143.956 213.01 143.614 213.08 143.226 213.08ZM143.226 212.455C143.489 212.455 143.717 212.412 143.908 212.327C144.099 212.241 144.247 212.121 144.351 211.966C144.455 211.811 144.508 211.629 144.51 211.42C144.508 211.201 144.451 211.007 144.34 210.838C144.228 210.67 144.075 210.537 143.882 210.44C143.691 210.344 143.472 210.295 143.226 210.295C142.978 210.295 142.756 210.344 142.561 210.44C142.368 210.537 142.216 210.67 142.104 210.838C141.994 211.007 141.94 211.201 141.942 211.42C141.94 211.629 141.99 211.811 142.093 211.966C142.197 212.121 142.345 212.241 142.539 212.327C142.732 212.412 142.961 212.455 143.226 212.455ZM143.226 209.693C143.434 209.693 143.619 209.652 143.78 209.568C143.943 209.485 144.071 209.368 144.164 209.219C144.256 209.069 144.304 208.894 144.306 208.693C144.304 208.496 144.257 208.325 144.166 208.179C144.075 208.031 143.95 207.918 143.789 207.838C143.628 207.757 143.44 207.716 143.226 207.716C143.008 207.716 142.818 207.757 142.655 207.838C142.492 207.918 142.366 208.031 142.277 208.179C142.188 208.325 142.145 208.496 142.146 208.693C142.145 208.894 142.189 209.069 142.28 209.219C142.373 209.368 142.501 209.485 142.664 209.568C142.826 209.652 143.014 209.693 143.226 209.693Z" fill="#6E6E6E"/>
<path d="M368.761 207.182V213H368.056V207.92H368.022L366.602 208.864V208.148L368.056 207.182H368.761ZM372.298 213.08C371.908 213.08 371.563 213.01 371.264 212.872C370.967 212.732 370.734 212.54 370.568 212.295C370.401 212.049 370.319 211.769 370.321 211.455C370.319 211.208 370.367 210.981 370.466 210.773C370.564 210.562 370.699 210.387 370.869 210.247C371.041 210.105 371.234 210.015 371.446 209.977V209.943C371.167 209.871 370.946 209.715 370.781 209.474C370.616 209.232 370.535 208.956 370.537 208.648C370.535 208.352 370.609 208.088 370.761 207.855C370.913 207.622 371.121 207.438 371.386 207.304C371.653 207.17 371.957 207.102 372.298 207.102C372.635 207.102 372.936 207.17 373.201 207.304C373.467 207.438 373.675 207.622 373.826 207.855C373.98 208.088 374.057 208.352 374.059 208.648C374.057 208.956 373.973 209.232 373.806 209.474C373.642 209.715 373.423 209.871 373.15 209.943V209.977C373.36 210.015 373.55 210.105 373.718 210.247C373.887 210.387 374.021 210.562 374.122 210.773C374.222 210.981 374.273 211.208 374.275 211.455C374.273 211.769 374.188 212.049 374.02 212.295C373.853 212.54 373.621 212.732 373.324 212.872C373.028 213.01 372.686 213.08 372.298 213.08ZM372.298 212.455C372.561 212.455 372.788 212.412 372.98 212.327C373.171 212.241 373.319 212.121 373.423 211.966C373.527 211.811 373.58 211.629 373.582 211.42C373.58 211.201 373.523 211.007 373.412 210.838C373.3 210.67 373.147 210.537 372.954 210.44C372.763 210.344 372.544 210.295 372.298 210.295C372.05 210.295 371.828 210.344 371.633 210.44C371.44 210.537 371.288 210.67 371.176 210.838C371.066 211.007 371.012 211.201 371.014 211.42C371.012 211.629 371.062 211.811 371.164 211.966C371.269 212.121 371.417 212.241 371.61 212.327C371.804 212.412 372.033 212.455 372.298 212.455ZM372.298 209.693C372.506 209.693 372.691 209.652 372.852 209.568C373.015 209.485 373.143 209.368 373.235 209.219C373.328 209.069 373.376 208.894 373.377 208.693C373.376 208.496 373.329 208.325 373.238 208.179C373.147 208.031 373.021 207.918 372.86 207.838C372.699 207.757 372.512 207.716 372.298 207.716C372.08 207.716 371.89 207.757 371.727 207.838C371.564 207.918 371.438 208.031 371.349 208.179C371.26 208.325 371.217 208.496 371.218 208.693C371.217 208.894 371.261 209.069 371.352 209.219C371.445 209.368 371.573 209.485 371.735 209.568C371.898 209.652 372.086 209.693 372.298 209.693Z" fill="#6E6E6E"/>
<line x1="16.6519" y1="164.5" x2="503.991" y2="164.5" stroke="#A1A1A1" stroke-dasharray="5 5"/>
<line x1="16.6519" y1="124.5" x2="503.991" y2="124.5" stroke="#A1A1A1" stroke-dasharray="5 5"/>
<line x1="16.6519" y1="84.5" x2="503.991" y2="84.5" stroke="#A1A1A1" stroke-dasharray="5 5"/>
<line x1="16.6519" y1="44.5" x2="503.991" y2="44.5" stroke="#A1A1A1" stroke-dasharray="5 5"/>
<line x1="16.6519" y1="4.5" x2="503.991" y2="4.5" stroke="#A1A1A1" stroke-dasharray="5 5"/>
<path d="M43.9109 45L17 203.5L504 204V78.5H480.127L454.953 119.5L441.931 102L419.361 103L405.906 137.5L381.599 145.5L365.539 133.5L358.16 145.5L335.156 119.5L320.832 144.5L285.241 144L266.577 47L254.423 128L220.134 169L199.734 129L153.725 115L138.533 75L109.886 177L88.6176 106.5L77.7665 118.5L58.2344 106.5L43.9109 45Z" fill="url(#paint0_linear_41_138)" stroke="#F3F4FB" stroke-linecap="round" stroke-linejoin="round"/>
<path d="M17 204L44.3206 45L58.6313 106.5L78.146 118.5L88.9875 106.5L110.237 177L138.858 75L154.037 115L200.004 129L220.386 169L254.646 128L266.788 47L285.435 144L320.996 144.5L335.306 119.5L358.29 145.5L365.663 133.5L381.708 145.5L405.993 137.5L419.436 103L441.987 102L454.996 119.5L480.149 78.5H504" stroke="#0A76E7" stroke-linecap="round" stroke-linejoin="round"/>
<line x1="16.6519" y1="204.5" x2="503.991" y2="204.5" stroke="#A1A1A1"/>
<circle cx="503.5" cy="78.5" r="1.5" fill="#0A76E7"/>
<defs>
<linearGradient id="paint0_linear_41_138" x1="261.585" y1="45" x2="261.585" y2="206" gradientUnits="userSpaceOnUse">
<stop stop-color="#A5D1FE"/>
<stop offset="0.458333" stop-color="#79B4F2" stop-opacity="0.546875"/>
<stop offset="1" stop-color="#E6F2FF" stop-opacity="0.43"/>
</linearGradient>
</defs>
</svg>
