<svg width="51" height="51" viewBox="0 0 51 51" fill="none" xmlns="http://www.w3.org/2000/svg">
<path d="M1.85926 0.885681C1.1689 0.885681 0.609259 1.44533 0.609259 2.13568C0.609259 2.82604 1.1689 3.38568 1.85926 3.38568V0.885681ZM8.11154 2.13568L9.3597 2.06792C9.32371 1.40487 8.77557 0.885681 8.11154 0.885681V2.13568ZM9.73883 32.1123H10.9888V32.0784L10.987 32.0446L9.73883 32.1123ZM42.3705 34.1679V32.9179H42.3356L42.3007 32.9198L42.3705 34.1679ZM47.3381 30.3994L48.5726 30.5958L48.5789 30.5559L48.5827 30.5157L47.3381 30.3994ZM49.0511 12.0708L50.2956 12.1871L50.3093 12.0405L50.2886 11.8947L49.0511 12.0708ZM8.53929 10.0153L7.29112 10.083L8.53929 10.0153ZM46.7386 10.0153V11.2653L46.7451 11.2652L46.7386 10.0153ZM1.85926 3.38568H8.11154V0.885681H1.85926V3.38568ZM9.73883 32.1123C8.48883 32.1123 8.48883 32.1131 8.48884 32.114C8.48884 32.1143 8.48884 32.1151 8.48884 32.1157C8.48884 32.1169 8.48885 32.1182 8.48885 32.1195C8.48887 32.1221 8.48889 32.1249 8.48892 32.1279C8.48899 32.134 8.48909 32.141 8.48926 32.1489C8.48959 32.1645 8.49017 32.1836 8.49116 32.206C8.49313 32.2506 8.49673 32.3083 8.50326 32.3773C8.51628 32.5149 8.54121 32.7 8.58917 32.9172C8.68436 33.3482 8.87551 33.929 9.26419 34.5156C10.0903 35.7626 11.641 36.7882 14.2782 36.7882V34.2882C12.376 34.2882 11.657 33.6009 11.3483 33.1349C11.1696 32.8651 11.077 32.5894 11.0304 32.3781C11.0074 32.2741 10.9968 32.1915 10.9921 32.1418C10.9898 32.1171 10.989 32.1012 10.9887 32.0956C10.9886 32.0929 10.9886 32.0927 10.9887 32.0954C10.9887 32.0968 10.9888 32.0989 10.9888 32.1017C10.9888 32.1031 10.9888 32.1047 10.9888 32.1064C10.9888 32.1073 10.9888 32.1082 10.9888 32.1092C10.9888 32.1097 10.9888 32.1105 10.9888 32.1107C10.9888 32.1115 10.9888 32.1123 9.73883 32.1123ZM14.2782 36.7882C16.1189 36.7882 23.1887 36.4427 29.7384 36.1013C33.0265 35.93 36.2019 35.7586 38.5551 35.6301C39.7318 35.5659 40.703 35.5123 41.3801 35.4748C41.7186 35.4561 41.9837 35.4414 42.1641 35.4313C42.2543 35.4263 42.3233 35.4224 42.3698 35.4198C42.3931 35.4186 42.4107 35.4176 42.4225 35.4169C42.4284 35.4166 42.4329 35.4163 42.4359 35.4162C42.4374 35.4161 42.4385 35.416 42.4392 35.416C42.4396 35.416 42.4399 35.4159 42.4401 35.4159C42.4403 35.4159 42.4404 35.4159 42.3705 34.1679C42.3007 32.9198 42.3006 32.9198 42.3005 32.9198C42.3003 32.9198 42.3 32.9199 42.2996 32.9199C42.2989 32.9199 42.2978 32.92 42.2963 32.9201C42.2934 32.9202 42.2889 32.9205 42.283 32.9208C42.2713 32.9215 42.2537 32.9224 42.2305 32.9237C42.1841 32.9263 42.1152 32.9302 42.0251 32.9352C41.8449 32.9452 41.5802 32.9599 41.2419 32.9787C40.5653 33.0161 39.5948 33.0696 38.4188 33.1338C36.0668 33.2623 32.8936 33.4335 29.6082 33.6047C23.011 33.9486 16.0346 34.2882 14.2782 34.2882V36.7882ZM42.3705 34.1679C42.3705 35.4179 42.3711 35.4179 42.3717 35.4179C42.3719 35.4179 42.3724 35.4179 42.3729 35.4179C42.3737 35.4179 42.3746 35.4179 42.3756 35.4179C42.3775 35.4178 42.3798 35.4178 42.3823 35.4178C42.3873 35.4178 42.3933 35.4177 42.4005 35.4176C42.4147 35.4174 42.4331 35.4171 42.4555 35.4164C42.5003 35.4151 42.561 35.4127 42.6355 35.4082C42.7844 35.3991 42.9903 35.3814 43.2364 35.3468C43.7239 35.2783 44.3936 35.14 45.0974 34.8559C46.5239 34.2801 48.1822 33.0498 48.5726 30.5958L46.1036 30.203C45.8945 31.5174 45.069 32.1714 44.1616 32.5377C43.6985 32.7246 43.2386 32.8219 42.8884 32.8711C42.7156 32.8954 42.5756 32.9072 42.4833 32.9128C42.4372 32.9156 42.4035 32.9169 42.384 32.9175C42.3742 32.9177 42.3681 32.9178 42.3657 32.9179C42.3646 32.9179 42.3644 32.9179 42.3652 32.9179C42.3656 32.9179 42.3662 32.9179 42.3671 32.9179C42.3675 32.9179 42.3681 32.9179 42.3686 32.9179C42.3689 32.9179 42.3694 32.9179 42.3695 32.9179C42.37 32.9179 42.3705 32.9179 42.3705 34.1679ZM48.5827 30.5157L50.2956 12.1871L47.8065 11.9545L46.0935 30.2831L48.5827 30.5157ZM6.86338 2.20344L7.29112 10.083L9.78745 9.94749L9.3597 2.06792L6.86338 2.20344ZM7.29112 10.083L8.49067 32.1801L10.987 32.0446L9.78745 9.94749L7.29112 10.083ZM50.2886 11.8947C50.1944 11.2327 50.0497 10.313 49.4114 9.64537C48.718 8.92005 47.7372 8.76 46.732 8.76527L46.7451 11.2652C47.576 11.2609 47.6509 11.4216 47.6044 11.373C47.594 11.3621 47.626 11.3867 47.6721 11.5313C47.7215 11.6863 47.765 11.9057 47.8135 12.2469L50.2886 11.8947ZM46.7386 8.76525H8.53929V11.2653H46.7386V8.76525Z" fill="#DB291F"/>
<circle cx="17.1708" cy="47.7664" r="2.55" fill="#DB291F"/>
<circle cx="40.6383" cy="47.7664" r="2.55" fill="#DB291F"/>
</svg>
