<svg width="49" height="47" viewBox="0 0 49 47" fill="none" xmlns="http://www.w3.org/2000/svg">
<path d="M35.7024 5.78333L25.8024 0.683331C25.0024 0.283331 24.1024 0.283331 23.3024 0.683331L13.4024 5.78333C12.6024 6.18333 12.1024 7.08333 12.1024 7.98333V19.0833C12.1024 20.0833 12.7024 21.0833 13.6024 21.5833L23.0024 26.4833C23.5024 26.7833 24.0024 26.8833 24.6024 26.8833C24.6024 26.8833 24.6024 26.8833 24.7024 26.8833C25.2024 26.8833 25.7024 26.7833 26.2024 26.4833L35.6024 21.5833C36.5024 21.0833 37.1024 20.1833 37.1024 19.0833V7.98333C37.0024 7.08333 36.5024 6.18333 35.7024 5.78333ZM24.0024 2.08333C24.2024 1.98333 24.4024 1.98333 24.6024 1.98333C24.8024 1.98333 25.0024 1.98333 25.2024 2.08333L34.8024 7.08333L30.7024 9.18333L20.4024 3.88333L24.0024 2.08333ZM23.7024 11.7833L14.4024 6.98333L18.8024 4.68333L29.0024 9.98333L25.5024 11.7833C24.9024 12.0833 24.2024 12.0833 23.7024 11.7833ZM14.3024 20.1833C13.9024 19.9833 13.6024 19.5833 13.6024 19.0833V8.28333L23.0024 13.1833C23.3024 13.2833 23.5024 13.3833 23.8024 13.4833V25.1833C23.7024 25.1833 23.7024 25.1833 23.6024 25.0833L14.3024 20.1833ZM34.8024 20.1833L25.4024 25.0833H25.3024V13.4833C25.6024 13.3833 25.9024 13.2833 26.1024 13.1833L30.9024 10.6833C30.9024 10.6833 30.9024 10.6833 31.0024 10.6833L35.5024 8.28333V18.9833C35.5024 19.5833 35.3024 19.9833 34.8024 20.1833Z" fill="#4EB08D"/>
<path d="M23.8292 25.1338L13.9292 20.0338C13.1292 19.6338 12.2292 19.6338 11.4292 20.0338L1.52925 25.1338C0.729248 25.5338 0.229248 26.4338 0.229248 27.3338V38.4338C0.229248 39.4338 0.829248 40.4338 1.72925 40.9338L11.1292 45.8338C11.6292 46.1338 12.1292 46.2338 12.7292 46.2338C12.7292 46.2338 12.7292 46.2338 12.8292 46.2338C13.3292 46.2338 13.8292 46.1338 14.3292 45.8338L23.7292 40.9338C24.6292 40.4338 25.2292 39.5338 25.2292 38.4338V27.3338C25.1292 26.4338 24.6292 25.5338 23.8292 25.1338ZM12.1292 21.4338C12.3292 21.3338 12.5292 21.3338 12.7292 21.3338C12.9292 21.3338 13.1292 21.3338 13.3292 21.4338L22.9292 26.4338L18.8292 28.5338L8.52925 23.2338L12.1292 21.4338ZM11.8292 31.1338L2.52925 26.3338L6.92925 24.0338L17.1292 29.3338L13.6292 31.1338C13.0292 31.4338 12.3292 31.4338 11.8292 31.1338ZM2.42925 39.5338C2.02925 39.3338 1.72925 38.9338 1.72925 38.4338V27.6338L11.1292 32.5338C11.4292 32.6338 11.6292 32.7338 11.9292 32.8338V44.5338C11.8292 44.5338 11.8292 44.5338 11.7292 44.4338L2.42925 39.5338ZM22.9292 39.5338L13.5292 44.4338H13.4292V32.8338C13.7292 32.7338 14.0292 32.6338 14.2292 32.5338L19.0292 30.0338C19.0292 30.0338 19.0292 30.0338 19.1292 30.0338L23.6292 27.6338V38.3338C23.6292 38.9338 23.4292 39.3338 22.9292 39.5338Z" fill="#4EB08D"/>
<path d="M47.2867 25.3376L37.3867 20.2376C36.5867 19.8376 35.6867 19.8376 34.8867 20.2376L24.9867 25.3376C24.1867 25.7376 23.6867 26.6376 23.6867 27.5376V38.6376C23.6867 39.6376 24.2867 40.6376 25.1867 41.1376L34.5867 46.0376C35.0867 46.3376 35.5867 46.4376 36.1867 46.4376C36.1867 46.4376 36.1867 46.4376 36.2867 46.4376C36.7867 46.4376 37.2867 46.3376 37.7867 46.0376L47.1867 41.1376C48.0867 40.6376 48.6867 39.7376 48.6867 38.6376V27.5376C48.5867 26.6376 48.0867 25.7376 47.2867 25.3376ZM35.5867 21.6376C35.7867 21.5376 35.9867 21.5376 36.1867 21.5376C36.3867 21.5376 36.5867 21.5376 36.7867 21.6376L46.3867 26.6376L42.2867 28.7376L31.9867 23.4376L35.5867 21.6376ZM35.2867 31.3376L25.9867 26.5376L30.3867 24.2376L40.5867 29.5376L37.0867 31.3376C36.4867 31.6376 35.7867 31.6376 35.2867 31.3376ZM25.8867 39.7376C25.4867 39.5376 25.1867 39.1376 25.1867 38.6376V27.8376L34.5867 32.7376C34.8867 32.8376 35.0867 32.9376 35.3867 33.0376V44.7376C35.2867 44.7376 35.2867 44.7376 35.1867 44.6376L25.8867 39.7376ZM46.3867 39.7376L36.9867 44.6376H36.8867V33.0376C37.1867 32.9376 37.4867 32.8376 37.6867 32.7376L42.4867 30.2376C42.4867 30.2376 42.4867 30.2376 42.5867 30.2376L47.0867 27.8376V38.5376C47.0867 39.1376 46.8867 39.5376 46.3867 39.7376Z" fill="#4EB08D"/>
</svg>
