<svg width="45" height="51" viewBox="0 0 45 51" fill="none" xmlns="http://www.w3.org/2000/svg">
<path d="M34.7965 44.2123L1.92651 44.212L7.47939 36.9923V25.3406C7.47939 25.3406 7.47939 16.9058 17.773 16.9058C28.0666 16.9058 29.2436 25.3406 29.2436 25.3406V36.9923L34.7965 44.2123ZM34.7965 44.2123L18.95 44.212M15.5975 46.9235H20.8039C20.8039 46.9235 20.4532 49.4053 18.3221 49.4053C15.9752 49.4053 15.5975 46.9235 15.5975 46.9235Z" stroke="#1B3149" stroke-width="2" stroke-linecap="round" stroke-linejoin="round"/>
<circle cx="30.5389" cy="13.5389" r="13.5389" fill="#007DFC"/>
<line x1="17" y1="48" x2="20" y2="48" stroke="#1B3149" stroke-width="2"/>
<path d="M27.6335 8.81818V19H26.4006V10.1108H26.3409L23.8551 11.7614V10.5085L26.4006 8.81818H27.6335ZM33.8828 19.1392C33.1338 19.1392 32.4957 18.9354 31.9688 18.5277C31.4418 18.1167 31.0391 17.5218 30.7607 16.7429C30.4822 15.9607 30.343 15.0161 30.343 13.9091C30.343 12.8087 30.4822 11.8691 30.7607 11.0902C31.0424 10.308 31.4467 9.71141 31.9737 9.30043C32.504 8.88613 33.1404 8.67898 33.8828 8.67898C34.6252 8.67898 35.2599 8.88613 35.7869 9.30043C36.3172 9.71141 36.7216 10.308 37 11.0902C37.2817 11.8691 37.4226 12.8087 37.4226 13.9091C37.4226 15.0161 37.2834 15.9607 37.005 16.7429C36.7266 17.5218 36.3239 18.1167 35.7969 18.5277C35.2699 18.9354 34.6319 19.1392 33.8828 19.1392ZM33.8828 18.0455C34.6252 18.0455 35.2019 17.6875 35.6129 16.9716C36.0239 16.2557 36.2294 15.2348 36.2294 13.9091C36.2294 13.0275 36.1349 12.2768 35.946 11.657C35.7604 11.0372 35.492 10.5649 35.1406 10.2401C34.7926 9.91525 34.3733 9.75284 33.8828 9.75284C33.147 9.75284 32.572 10.1158 32.1577 10.8416C31.7434 11.5642 31.5362 12.5866 31.5362 13.9091C31.5362 14.7907 31.629 15.5398 31.8146 16.1562C32.0002 16.7727 32.267 17.2417 32.6151 17.5632C32.9664 17.8847 33.389 18.0455 33.8828 18.0455Z" fill="white"/>
</svg>
