<svg width="26" height="27" viewBox="0 0 26 27" fill="none" xmlns="http://www.w3.org/2000/svg">
<path d="M24.3 5.50001L14.4 0.400006C13.6 6.10948e-06 12.7 6.10948e-06 11.9 0.400006L2.00001 5.50001C1.20001 5.90001 0.700012 6.80001 0.700012 7.70001V18.8C0.700012 19.8 1.30001 20.8 2.20001 21.3L11.6 26.2C12.1 26.5 12.6 26.6 13.2 26.6C13.2 26.6 13.2 26.6 13.3 26.6C13.8 26.6 14.3 26.5 14.8 26.2L24.2 21.3C25.1 20.8 25.7 19.9 25.7 18.8V7.70001C25.6 6.80001 25.1 5.90001 24.3 5.50001ZM12.6 1.80001C12.8 1.70001 13 1.70001 13.2 1.70001C13.4 1.70001 13.6 1.70001 13.8 1.80001L23.4 6.80001L19.3 8.90001L9.00001 3.60001L12.6 1.80001ZM12.3 11.5L3.00001 6.70001L7.40001 4.40001L17.6 9.70001L14.1 11.5C13.5 11.8 12.8 11.8 12.3 11.5ZM2.90001 19.9C2.50001 19.7 2.20001 19.3 2.20001 18.8V8.00001L11.6 12.9C11.9 13 12.1 13.1 12.4 13.2V24.9C12.3 24.9 12.3 24.9 12.2 24.8L2.90001 19.9ZM23.4 19.9L14 24.8H13.9V13.2C14.2 13.1 14.5 13 14.7 12.9L19.5 10.4C19.5 10.4 19.5 10.4 19.6 10.4L24.1 8.00001V18.7C24.1 19.3 23.9 19.7 23.4 19.9Z" fill="#007DFC"/>
</svg>
